<svg width="25" height="22" viewBox="0 0 25 22" fill="none" xmlns="http://www.w3.org/2000/svg">
<path d="M12.3705 13.4324V21M23.8894 1.64865V9.64865H0.851562V1.64865C0.851562 1.47662 0.924378 1.31163 1.05399 1.18998C1.1836 1.06834 1.3594 1 1.5427 1H23.1983C23.3816 1 23.5574 1.06834 23.687 1.18998C23.8166 1.31163 23.8894 1.47662 23.8894 1.64865V1.64865ZM19.2819 5.32432H20.4338H19.2819ZM0.851562 9.64865L1.76156 12.4422C1.90562 12.885 2.19737 13.2728 2.59385 13.5484C2.99033 13.8239 3.47061 13.9728 3.96398 13.973H5.45914L0.851562 9.64865ZM23.8894 9.64865L22.9794 12.4422C22.8354 12.885 22.5436 13.2728 22.1472 13.5484C21.7507 13.8239 21.2704 13.9728 20.777 13.973H19.2819L23.8894 9.64865ZM9.49077 13.4324C9.49077 13.4324 9.49077 21 5.45914 21L9.49077 13.4324ZM15.2502 13.4324C15.2502 13.4324 15.2502 21 19.2819 21L15.2502 13.4324Z" stroke="#424B5A" stroke-width="1.5" stroke-linecap="round" stroke-linejoin="round"/>
</svg>
