<svg width="60" height="60" viewBox="0 0 60 60" fill="none" xmlns="http://www.w3.org/2000/svg">
<path d="M30 0C37.9565 0 45.5871 3.1607 51.2132 8.7868C56.8393 14.4129 60 22.0435 60 30C60 37.9565 56.8393 45.5871 51.2132 51.2132C45.5871 56.8393 37.9565 60 30 60C22.0435 60 14.4129 56.8393 8.7868 51.2132C3.1607 45.5871 0 37.9565 0 30C0 22.0435 3.1607 14.4129 8.7868 8.7868C14.4129 3.1607 22.0435 0 30 0V0ZM30 12.8571C29.4559 12.8567 28.9177 12.9697 28.4197 13.189C27.9217 13.4083 27.475 13.729 27.1079 14.1307C26.7409 14.5324 26.4617 15.0062 26.2882 15.5219C26.1146 16.0376 26.0505 16.5839 26.1 17.1257L27.6643 34.2943C27.7249 34.8715 27.9972 35.4058 28.4285 35.7942C28.8598 36.1825 29.4196 36.3974 30 36.3974C30.5804 36.3974 31.1402 36.1825 31.5715 35.7942C32.0028 35.4058 32.2751 34.8715 32.3357 34.2943L33.8957 17.1257C33.9451 16.5842 33.8812 16.0384 33.7079 15.523C33.5346 15.0076 33.2558 14.5339 32.8892 14.1323C32.5227 13.7307 32.0764 13.4098 31.579 13.1903C31.0815 12.9707 30.5438 12.8573 30 12.8571V12.8571ZM30 47.1429C30.9093 47.1429 31.7814 46.7816 32.4244 46.1386C33.0673 45.4957 33.4286 44.6236 33.4286 43.7143C33.4286 42.805 33.0673 41.9329 32.4244 41.2899C31.7814 40.6469 30.9093 40.2857 30 40.2857C29.0907 40.2857 28.2186 40.6469 27.5756 41.2899C26.9327 41.9329 26.5714 42.805 26.5714 43.7143C26.5714 44.6236 26.9327 45.4957 27.5756 46.1386C28.2186 46.7816 29.0907 47.1429 30 47.1429V47.1429Z" fill="#424B5A"/>
</svg>
