<svg width="60" height="67" viewBox="0 0 60 67" fill="none" xmlns="http://www.w3.org/2000/svg">
<path d="M23.3333 26.6667V33.3333H16.6667V26.6667H23.3333ZM43.3333 33.3333V26.6667H36.6667V33.3333H43.3333ZM60 40V66.6667H0V40H3.33333V26.6667C3.33333 11.9333 15.2667 0 30 0C44.7333 0 56.6667 11.9333 56.6667 26.6667V40H60ZM13.3333 46.6667H6.66667V60H13.3333V46.6667ZM26.6667 46.6667H20V60H26.6667V46.6667ZM26.6667 6.93333C17.2 8.53333 10 16.7667 10 26.6667V40H26.6667V6.93333ZM33.3333 40H50V26.6667C50 16.7667 42.8 8.53333 33.3333 6.93333V40ZM40 46.6667H33.3333V60H40V46.6667ZM53.3333 46.6667H46.6667V60H53.3333V46.6667Z" fill="#424B5A"/>
</svg>
