<svg width="60" height="48" viewBox="0 0 60 48" fill="none" xmlns="http://www.w3.org/2000/svg">
<path d="M53.5714 20.183C52.2205 19.59 50.761 19.2844 49.2857 19.2857H10.7143C9.23907 19.2843 7.77966 19.5894 6.42857 20.1817C4.51902 21.0168 2.89411 22.3901 1.75245 24.1337C0.610784 25.8774 0.00182471 27.9158 0 30V45C0 45.5683 0.225765 46.1134 0.627628 46.5152C1.02949 46.9171 1.57454 47.1429 2.14286 47.1429C2.71118 47.1429 3.25622 46.9171 3.65809 46.5152C4.05995 46.1134 4.28571 45.5683 4.28571 45V43.9286C4.28919 43.6455 4.40319 43.375 4.60337 43.1748C4.80355 42.9746 5.07406 42.8606 5.35714 42.8571H54.6429C54.9259 42.8606 55.1964 42.9746 55.3966 43.1748C55.5968 43.375 55.7108 43.6455 55.7143 43.9286V45C55.7143 45.5683 55.94 46.1134 56.3419 46.5152C56.7438 46.9171 57.2888 47.1429 57.8571 47.1429C58.4255 47.1429 58.9705 46.9171 59.3724 46.5152C59.7742 46.1134 60 45.5683 60 45V30C59.9979 27.9161 59.3888 25.8779 58.2472 24.1345C57.1055 22.3911 55.4808 21.018 53.5714 20.183V20.183ZM46.0714 0H13.9286C11.9394 0 10.0318 0.790177 8.62527 2.1967C7.21875 3.60322 6.42857 5.51088 6.42857 7.5V17.1429C6.42863 17.2259 6.44798 17.3077 6.4851 17.382C6.52222 17.4563 6.57609 17.5209 6.64245 17.5707C6.70882 17.6206 6.78587 17.6544 6.86752 17.6694C6.94917 17.6844 7.03319 17.6802 7.11295 17.6571C8.28276 17.315 9.49547 17.1418 10.7143 17.1429H11.2808C11.413 17.1437 11.5409 17.0956 11.6398 17.0078C11.7387 16.9201 11.8016 16.7988 11.8165 16.6674C11.9334 15.6203 12.4319 14.653 13.2167 13.9502C14.0016 13.2473 15.0179 12.8582 16.0714 12.8571H23.5714C24.6257 12.8572 25.6429 13.2459 26.4286 13.9488C27.2144 14.6518 27.7134 15.6197 27.8304 16.6674C27.8452 16.7988 27.9082 16.9201 28.0071 17.0078C28.106 17.0956 28.2338 17.1437 28.3661 17.1429H31.642C31.7742 17.1437 31.9021 17.0956 32.001 17.0078C32.0999 16.9201 32.1628 16.7988 32.1777 16.6674C32.2945 15.621 32.7924 14.6543 33.5764 13.9515C34.3604 13.2488 35.3757 12.8592 36.4286 12.8571H43.9286C44.9828 12.8572 46.0001 13.2459 46.7858 13.9488C47.5715 14.6518 48.0705 15.6197 48.1875 16.6674C48.2024 16.7988 48.2653 16.9201 48.3642 17.0078C48.4631 17.0956 48.591 17.1437 48.7232 17.1429H49.2857C50.5046 17.1423 51.7173 17.3159 52.8871 17.6585C52.9669 17.6816 53.0511 17.6857 53.1328 17.6706C53.2146 17.6556 53.2917 17.6217 53.3581 17.5717C53.4245 17.5217 53.4783 17.4569 53.5153 17.3824C53.5524 17.308 53.5716 17.226 53.5714 17.1429V7.5C53.5714 5.51088 52.7813 3.60322 51.3747 2.1967C49.9682 0.790177 48.0606 0 46.0714 0Z" fill="#C1B18A"/>
</svg>
