<svg width="60" height="51" viewBox="0 0 60 51" fill="none" xmlns="http://www.w3.org/2000/svg">
<path d="M14.25 1.01657e-08H45.75C47.8509 -0.000104218 49.8726 0.801276 51.4029 2.24068C52.9332 3.68008 53.8567 5.64906 53.985 7.746L54 8.25V18.312C55.6352 18.7762 57.0873 19.7339 58.158 21.0542C59.2286 22.3745 59.8656 23.9931 59.982 25.689L60 26.25V48.75C59.9998 49.3201 59.7833 49.8688 59.3941 50.2854C59.0049 50.7019 58.4721 50.9552 57.9034 50.9941C57.3346 51.0329 56.7723 50.8545 56.3301 50.4947C55.8879 50.135 55.5987 49.6207 55.521 49.056L55.5 48.75V42H4.5V48.75C4.49998 49.2937 4.30307 49.819 3.9457 50.2288C3.58833 50.6386 3.09466 50.9051 2.556 50.979L2.25 51C1.70629 51 1.18097 50.8031 0.771208 50.4457C0.361442 50.0883 0.0949448 49.5947 0.0209999 49.056L0 48.75V26.25C0 22.473 2.538 19.29 6 18.309V8.25C5.9999 6.14914 6.80128 4.12738 8.24068 2.59711C9.68008 1.06684 11.6491 0.143344 13.746 0.0150004L14.25 1.01657e-08ZM51.75 22.5H8.25C7.32163 22.4996 6.4261 22.8435 5.7367 23.4653C5.04731 24.0871 4.61307 24.9425 4.518 25.866L4.5 26.25V37.5H55.5V26.25C55.4997 25.3221 55.1554 24.4273 54.5337 23.7386C53.912 23.0498 53.057 22.616 52.134 22.521L51.75 22.5ZM45.75 4.5H14.25C13.3216 4.49958 12.4261 4.84354 11.7367 5.46532C11.0473 6.0871 10.6131 6.94251 10.518 7.866L10.5 8.25V18H15C15 17.2044 15.3161 16.4413 15.8787 15.8787C16.4413 15.3161 17.2044 15 18 15H24C24.7348 15.0001 25.444 15.2699 25.9931 15.7581C26.5422 16.2464 26.893 16.9192 26.979 17.649L27 18H33C33 17.2044 33.3161 16.4413 33.8787 15.8787C34.4413 15.3161 35.2044 15 36 15H42C42.7348 15.0001 43.444 15.2699 43.9931 15.7581C44.5422 16.2464 44.893 16.9192 44.979 17.649L45 18H49.5V8.25C49.5004 7.32163 49.1565 6.4261 48.5347 5.7367C47.9129 5.04731 47.0575 4.61307 46.134 4.518L45.75 4.5Z" fill="#424B5A"/>
</svg>
