<svg width="60" height="60" viewBox="0 0 60 60" fill="none" xmlns="http://www.w3.org/2000/svg">
<path d="M15 1.875C15 1.37772 14.8025 0.900806 14.4508 0.549175C14.0992 0.197544 13.6223 0 13.125 0C12.6277 0 12.1508 0.197544 11.7992 0.549175C11.4475 0.900806 11.25 1.37772 11.25 1.875V3.75H7.5C5.51088 3.75 3.60322 4.54018 2.1967 5.9467C0.790176 7.35322 0 9.26088 0 11.25L0 15H60V11.25C60 9.26088 59.2098 7.35322 57.8033 5.9467C56.3968 4.54018 54.4891 3.75 52.5 3.75H48.75V1.875C48.75 1.37772 48.5525 0.900806 48.2008 0.549175C47.8492 0.197544 47.3723 0 46.875 0C46.3777 0 45.9008 0.197544 45.5492 0.549175C45.1975 0.900806 45 1.37772 45 1.875V3.75H15V1.875ZM60 52.5V18.75H0V52.5C0 54.4891 0.790176 56.3968 2.1967 57.8033C3.60322 59.2098 5.51088 60 7.5 60H52.5C54.4891 60 56.3968 59.2098 57.8033 57.8033C59.2098 56.3968 60 54.4891 60 52.5ZM40.7025 33.2025L29.4525 44.4525C29.2783 44.6271 29.0714 44.7656 28.8436 44.8602C28.6158 44.9547 28.3716 45.0034 28.125 45.0034C27.8784 45.0034 27.6342 44.9547 27.4064 44.8602C27.1786 44.7656 26.9717 44.6271 26.7975 44.4525L21.1725 38.8275C20.8204 38.4754 20.6226 37.9979 20.6226 37.5C20.6226 37.0021 20.8204 36.5246 21.1725 36.1725C21.5246 35.8204 22.0021 35.6226 22.5 35.6226C22.9979 35.6226 23.4754 35.8204 23.8275 36.1725L28.125 40.4738L38.0475 30.5475C38.3996 30.1954 38.8771 29.9976 39.375 29.9976C39.8729 29.9976 40.3504 30.1954 40.7025 30.5475C41.0546 30.8996 41.2524 31.3771 41.2524 31.875C41.2524 32.3729 41.0546 32.8504 40.7025 33.2025V33.2025Z" fill="#C1B18A"/>
</svg>
