<svg width="60" height="60" viewBox="0 0 60 60" fill="none" xmlns="http://www.w3.org/2000/svg">
<path d="M30 0C24.0666 0 18.2664 1.75947 13.3329 5.05591C8.39943 8.35235 4.55426 13.0377 2.28363 18.5195C0.0129985 24.0013 -0.581102 30.0333 0.576455 35.8527C1.73401 41.6721 4.59123 47.0176 8.78681 51.2132C12.9824 55.4088 18.3279 58.266 24.1473 59.4236C29.9667 60.5811 35.9987 59.987 41.4805 57.7164C46.9623 55.4458 51.6477 51.6006 54.9441 46.6671C58.2405 41.7336 60 35.9334 60 30C60 22.0435 56.8393 14.4129 51.2132 8.7868C45.5871 3.16071 37.9565 0 30 0V0ZM6.00001 30C6.01182 24.6731 7.79549 19.5016 11.07 15.3L44.7 48.93C41.1543 51.6775 36.9095 53.3762 32.4472 53.8336C27.985 54.291 23.4839 53.4887 19.4544 51.5178C15.425 49.5468 12.0286 46.486 9.6505 42.6827C7.27237 38.8793 6.00773 34.4856 6.00001 30V30ZM48.93 44.7L15.3 11.07C19.9205 7.55825 25.657 5.83971 31.4473 6.23261C37.2375 6.62551 42.6893 9.10324 46.793 13.207C50.8968 17.3107 53.3745 22.7625 53.7674 28.5527C54.1603 34.343 52.4418 40.0795 48.93 44.7V44.7Z" fill="#424B5A"/>
</svg>
