<svg width="60" height="78" viewBox="0 0 60 78" fill="none" xmlns="http://www.w3.org/2000/svg">
<path d="M0 77.1429V47.1429C0 44.7857 0.839999 42.7671 2.52 41.0871C4.19714 39.41 6.21429 38.5714 8.57143 38.5714H12.8571V30H8.57143C6.21429 30 4.19714 29.16 2.52 27.48C0.839999 25.8029 0 23.7857 0 21.4286V8.57143C0 6.21429 0.839999 4.19571 2.52 2.51571C4.19714 0.838571 6.21429 0 8.57143 0H51.4286C53.7857 0 55.8043 0.838571 57.4843 2.51571C59.1614 4.19571 60 6.21429 60 8.57143V21.4286C60 23.7857 59.1614 25.8029 57.4843 27.48C55.8043 29.16 53.7857 30 51.4286 30H47.1429V38.5714H51.4286C53.7857 38.5714 55.8043 39.41 57.4843 41.0871C59.1614 42.7671 60 44.7857 60 47.1429V77.1429H51.4286V64.2857H8.57143V77.1429H0ZM21.4286 38.5714H38.5714V30H21.4286V38.5714Z" fill="#424B5A"/>
</svg>
