<svg width="60" height="51" viewBox="0 0 60 51" fill="none" xmlns="http://www.w3.org/2000/svg">
<path d="M50.7692 28.9183V40.3846C50.7692 43.2452 49.7536 45.6911 47.7224 47.7224C45.6911 49.7536 43.2452 50.7692 40.3846 50.7692H10.3846C7.52404 50.7692 5.07812 49.7536 3.04687 47.7224C1.01563 45.6911 0 43.2452 0 40.3846V10.3846C0 7.52404 1.01563 5.07812 3.04687 3.04687C5.07812 1.01563 7.52404 0 10.3846 0H40.3846C41.899 0 43.3053 0.300481 44.6034 0.901442C44.9639 1.06971 45.1803 1.34615 45.2524 1.73077C45.3245 2.13942 45.2163 2.48798 44.9279 2.77644L43.1611 4.54327C42.9207 4.78365 42.6442 4.90385 42.3317 4.90385C42.2596 4.90385 42.1514 4.87981 42.0072 4.83173C41.4543 4.6875 40.9135 4.61538 40.3846 4.61538H10.3846C8.79808 4.61538 7.4399 5.18029 6.3101 6.3101C5.18029 7.4399 4.61538 8.79808 4.61538 10.3846V40.3846C4.61538 41.9712 5.18029 43.3293 6.3101 44.4591C7.4399 45.5889 8.79808 46.1538 10.3846 46.1538H40.3846C41.9712 46.1538 43.3293 45.5889 44.4591 44.4591C45.5889 43.3293 46.1538 41.9712 46.1538 40.3846V31.226C46.1538 30.9135 46.262 30.649 46.4784 30.4327L48.7861 28.125C49.0264 27.8846 49.3029 27.7644 49.6154 27.7644C49.7596 27.7644 49.9038 27.8005 50.0481 27.8726C50.5288 28.0649 50.7692 28.4135 50.7692 28.9183ZM59.0986 11.2861L29.7476 40.637C29.1707 41.2139 28.4856 41.5024 27.6923 41.5024C26.899 41.5024 26.2139 41.2139 25.637 40.637L10.1322 25.1322C9.55529 24.5553 9.26683 23.8702 9.26683 23.0769C9.26683 22.2837 9.55529 21.5986 10.1322 21.0216L14.0986 17.0553C14.6755 16.4784 15.3606 16.1899 16.1538 16.1899C16.9471 16.1899 17.6322 16.4784 18.2091 17.0553L27.6923 26.5385L51.0216 3.20913C51.5986 2.63221 52.2837 2.34375 53.0769 2.34375C53.8702 2.34375 54.5553 2.63221 55.1322 3.20913L59.0986 7.17548C59.6755 7.7524 59.9639 8.4375 59.9639 9.23077C59.9639 10.024 59.6755 10.7091 59.0986 11.2861Z" fill="#424B5A"/>
</svg>
