<svg width="60" height="60" viewBox="0 0 60 60" fill="none" xmlns="http://www.w3.org/2000/svg">
<path d="M50.8333 0C53.2645 0 55.5961 0.965771 57.3151 2.68485C59.0342 4.40394 60 6.73552 60 9.16667V50.8333C60 53.2645 59.0342 55.5961 57.3151 57.3151C55.5961 59.0342 53.2645 60 50.8333 60H9.16667C6.73552 60 4.40394 59.0342 2.68485 57.3151C0.965771 55.5961 0 53.2645 0 50.8333V9.16667C0 6.73552 0.965771 4.40394 2.68485 2.68485C4.40394 0.965771 6.73552 0 9.16667 0H50.8333ZM50.8333 5H9.16667C6.86667 5 5 6.86667 5 9.16667V50.8333C5 53.1333 6.86667 55 9.16667 55H50.8333C53.1333 55 55 53.1333 55 50.8333V9.16667C55 6.86667 53.1333 5 50.8333 5ZM23.3333 38.1333L44.9 16.5667C45.3467 16.1235 45.944 15.865 46.5729 15.8429C47.2017 15.8207 47.8158 16.0365 48.2925 16.4472C48.7692 16.8579 49.0736 17.4332 49.1448 18.0584C49.216 18.6836 49.0488 19.3126 48.6767 19.82L48.4333 20.1L25.1 43.4333C24.6767 43.8567 24.1155 44.1142 23.5185 44.1588C22.9215 44.2035 22.3282 44.0324 21.8467 43.6767L21.5667 43.4333L11.5667 33.4333C11.1235 32.9867 10.865 32.3893 10.8429 31.7605C10.8207 31.1316 11.0365 30.5176 11.4472 30.0408C11.8579 29.5641 12.4332 29.2598 13.0584 29.1885C13.6836 29.1173 14.3126 29.2845 14.82 29.6567L15.1 29.9L23.3333 38.1333L44.9 16.5667L23.3333 38.1333Z" fill="#424B5A"/>
</svg>
