<svg width="60" height="60" viewBox="0 0 60 60" fill="none" xmlns="http://www.w3.org/2000/svg">
<path d="M50 0C52.6522 0 55.1957 1.05357 57.0711 2.92893C58.9464 4.8043 60 7.34783 60 10V50C60 52.6522 58.9464 55.1957 57.0711 57.0711C55.1957 58.9464 52.6522 60 50 60H10C7.34783 60 4.8043 58.9464 2.92893 57.0711C1.05357 55.1957 0 52.6522 0 50V10C0 7.34783 1.05357 4.8043 2.92893 2.92893C4.8043 1.05357 7.34783 0 10 0H50ZM44.9 16.5667L23.3333 38.1333L15.1 29.9C14.6261 29.4584 13.9993 29.218 13.3516 29.2294C12.7039 29.2408 12.086 29.5032 11.6279 29.9613C11.1699 30.4193 10.9075 31.0373 10.8961 31.6849C10.8847 32.3326 11.1251 32.9594 11.5667 33.4333L21.5667 43.4333C22.0354 43.9015 22.6708 44.1645 23.3333 44.1645C23.9958 44.1645 24.6312 43.9015 25.1 43.4333L48.4333 20.1C48.8749 19.6261 49.1153 18.9993 49.1039 18.3516C49.0925 17.7039 48.8301 17.086 48.3721 16.6279C47.914 16.1699 47.2961 15.9075 46.6484 15.8961C46.0007 15.8847 45.3739 16.1251 44.9 16.5667Z" fill="#424B5A"/>
</svg>
