<svg width="60" height="55" viewBox="0 0 60 55" fill="none" xmlns="http://www.w3.org/2000/svg">
<path d="M33.0002 25.6565V23.6223C35.5752 22.9548 37.8559 21.4517 39.4848 19.3487C41.1138 17.2458 41.9989 14.6617 42.0015 12.0017C42.0015 5.38274 36.6187 0 29.9998 0C23.3809 0 17.9982 5.38274 17.9982 12.0017H23.999C23.999 8.6922 26.6904 6.00083 29.9998 6.00083C33.3093 6.00083 36.0007 8.6922 36.0007 12.0017C36.0007 15.3111 33.3093 18.0025 29.9998 18.0025C29.2041 18.0025 28.4409 18.3186 27.8782 18.8813C27.3155 19.444 26.9994 20.2071 26.9994 21.0029V25.6565L1.00081 48.7657C0.547988 49.1709 0.228694 49.7038 0.0850897 50.2942C-0.0585143 50.8846 -0.0196745 51.5047 0.196481 52.0725C0.412637 52.6404 0.795942 53.1293 1.29578 53.4748C1.79562 53.8203 2.38848 54.006 2.99609 54.0075H57.0036C57.6116 54.0061 58.2048 53.8201 58.7049 53.4743C59.205 53.1285 59.5883 52.639 59.8043 52.0706C60.0202 51.5022 60.0585 50.8817 59.9141 50.291C59.7698 49.7004 59.4496 49.1675 58.9958 48.7627L33.0002 25.6565ZM10.8872 48.0066L29.9998 31.0183L49.1125 48.0066H10.8872Z" fill="#424B5A"/>
</svg>
