<svg width="60" height="60" viewBox="0 0 60 60" fill="none" xmlns="http://www.w3.org/2000/svg">
<path d="M57.6 54.3H2.4C1.0725 54.3 0 55.3725 0 56.7V59.4C0 59.73 0.27 60 0.6 60H59.4C59.73 60 60 59.73 60 59.4V56.7C60 55.3725 58.9275 54.3 57.6 54.3ZM10.9275 48C11.0775 48 11.2275 47.985 11.3775 47.9625L23.9925 45.75C24.1425 45.72 24.285 45.6525 24.39 45.54L56.1825 13.7475C56.252 13.6781 56.3072 13.5957 56.3448 13.505C56.3825 13.4142 56.4018 13.317 56.4018 13.2188C56.4018 13.1205 56.3825 13.0233 56.3448 12.9325C56.3072 12.8418 56.252 12.7594 56.1825 12.69L43.7175 0.2175C43.575 0.0750001 43.3875 0 43.185 0C42.9825 0 42.795 0.0750001 42.6525 0.2175L10.86 32.01C10.7475 32.1225 10.68 32.2575 10.65 32.4075L8.4375 45.0225C8.36454 45.4243 8.39061 45.8378 8.51345 46.2272C8.6363 46.6167 8.85221 46.9703 9.1425 47.2575C9.6375 47.7375 10.26 48 10.9275 48V48Z" fill="#424B5A"/>
</svg>
