<svg width="66" height="66" viewBox="0 0 66 66" fill="none" xmlns="http://www.w3.org/2000/svg">
<path d="M29.8372 9.32568H8.96382C7.38212 9.32568 5.8652 9.95401 4.74676 11.0724C3.62833 12.1909 3 13.7078 3 15.2895V57.0363C3 58.618 3.62833 60.1349 4.74676 61.2533C5.8652 62.3718 7.38212 63.0001 8.96382 63.0001H50.7106C52.2923 63.0001 53.8092 62.3718 54.9276 61.2533C56.0461 60.1349 56.6744 58.618 56.6744 57.0363V36.1629" stroke="#424B5A" stroke-width="5" stroke-linecap="round" stroke-linejoin="round"/>
<path d="M52.2017 4.85272C53.388 3.66644 54.9969 3 56.6745 3C58.3522 3 59.9611 3.66644 61.1474 4.85272C62.3337 6.039 63.0001 7.64794 63.0001 9.32559C63.0001 11.0032 62.3337 12.6122 61.1474 13.7985L32.8192 42.1266L20.8916 45.1085L23.8735 33.1809L52.2017 4.85272Z" stroke="#424B5A" stroke-width="5" stroke-linecap="round" stroke-linejoin="round"/>
</svg>
