<svg width="59" height="60" viewBox="0 0 59 60" fill="none" xmlns="http://www.w3.org/2000/svg">
<path d="M12.3334 50H22.3334V36.6667H25.6667V28.3333C25.6667 26.5 25.0145 24.93 23.7101 23.6233C22.4034 22.3189 20.8334 21.6667 19.0001 21.6667H15.6667C13.8334 21.6667 12.2645 22.3189 10.9601 23.6233C9.6534 24.93 9.00007 26.5 9.00007 28.3333V36.6667H12.3334V50ZM17.3334 18.3333C18.5001 18.3333 19.4856 17.93 20.2901 17.1233C21.0967 16.3189 21.5001 15.3333 21.5001 14.1667C21.5001 13 21.0967 12.0133 20.2901 11.2067C19.4856 10.4022 18.5001 10 17.3334 10C16.1667 10 15.1812 10.4022 14.3767 11.2067C13.5701 12.0133 13.1667 13 13.1667 14.1667C13.1667 15.3333 13.5701 16.3189 14.3767 17.1233C15.1812 17.93 16.1667 18.3333 17.3334 18.3333ZM32.3334 26.6667H49.0001L40.6667 13.3333L32.3334 26.6667ZM40.6667 46.6667L49.0001 33.3333H32.3334L40.6667 46.6667ZM4.00007 60C2.16674 60 1.5 59.0433 1 58.5433C1.60336e-05 57.0433 7.14436e-05 55.1667 7.14436e-05 53.3333L0 6.66667C0 4.83333 -1.19209e-07 3.04333 0.999948 1.54333C1.49995 1.04333 2.16674 0 4.00007 0H54.0001C55.8334 0 57 1.04333 57.5 2.04333C58.25 3.54333 58 4.83333 58 6.66667L58 53.3333C58 55.1667 58.1056 56.8321 57.5 58.0433C56.8944 59.2546 56 60 54.0001 60H4.00007ZM4.00007 56.0433H54.0001V3.54333H4.00007V56.0433Z" fill="#424B5A"/>
</svg>
