<svg width="60" height="60" viewBox="0 0 60 60" fill="none" xmlns="http://www.w3.org/2000/svg">
<path d="M53.3333 0H6.66667C3 0 0 3 0 6.66667V53.3333C0 57 3 60 6.66667 60H53.3333C57 60 60 57 60 53.3333V6.66667C60 3 57 0 53.3333 0ZM18.3333 10C19.4384 10 20.4982 10.439 21.2796 11.2204C22.061 12.0018 22.5 13.0616 22.5 14.1667C22.5 15.2717 22.061 16.3315 21.2796 17.1129C20.4982 17.8943 19.4384 18.3333 18.3333 18.3333C17.2283 18.3333 16.1685 17.8943 15.3871 17.1129C14.6057 16.3315 14.1667 15.2717 14.1667 14.1667C14.1667 13.0616 14.6057 12.0018 15.3871 11.2204C16.1685 10.439 17.2283 10 18.3333 10V10ZM26.6667 36.6667H23.3333V50H13.3333V36.6667H10V28.3333C10 24.6667 13 21.6667 16.6667 21.6667H20C23.6667 21.6667 26.6667 24.6667 26.6667 28.3333V36.6667ZM41.6667 46.6667L33.3333 33.3333H50L41.6667 46.6667ZM33.3333 26.6667L41.6667 13.3333L50 26.6667H33.3333Z" fill="#424B5A"/>
</svg>
