<svg width="60" height="60" viewBox="0 0 60 60" fill="none" xmlns="http://www.w3.org/2000/svg">
<path d="M38.9996 59.9993C39.7952 59.9993 40.5583 59.6833 41.1209 59.1207C41.6835 58.5581 41.9995 57.795 41.9995 56.9994C41.9995 56.2037 41.6835 55.4407 41.1209 54.8781C40.5583 54.3155 39.7952 53.9994 38.9996 53.9994H13.9998C11.8781 53.9994 9.84333 53.1566 8.34305 51.6563C6.84278 50.156 5.99993 48.1212 5.99993 45.9995V13.9998C5.99993 11.8781 6.84278 9.84333 8.34305 8.34305C9.84333 6.84278 11.8781 5.99993 13.9998 5.99993H38.9996C39.7952 5.99993 40.5583 5.68387 41.1209 5.12126C41.6835 4.55866 41.9995 3.79561 41.9995 2.99997C41.9995 2.20433 41.6835 1.44127 41.1209 0.87867C40.5583 0.316067 39.7952 0 38.9996 0H13.9998C10.2869 0 6.72594 1.47498 4.10046 4.10046C1.47498 6.72594 0 10.2869 0 13.9998V45.9995C0 49.7125 1.47498 53.2734 4.10046 55.8989C6.72594 58.5244 10.2869 59.9993 13.9998 59.9993H38.9996ZM42.9635 14.7958C43.2529 14.5284 43.5922 14.3206 43.9619 14.1843C44.3316 14.048 44.7246 13.9859 45.1183 14.0015C45.512 14.0171 45.8988 14.1101 46.2566 14.2752C46.6144 14.4404 46.9361 14.6743 47.2035 14.9638L59.2033 27.9637C59.7155 28.518 60 29.245 60 29.9997C60 30.7544 59.7155 31.4814 59.2033 32.0356L47.2035 45.0355C46.663 45.6195 45.9126 45.9649 45.1175 45.9956C44.3223 46.0264 43.5475 45.74 42.9635 45.1995C42.3795 44.659 42.0342 43.9086 42.0034 43.1135C41.9726 42.3183 42.259 41.5435 42.7995 40.9595L50.1514 32.9956H18.9998C18.2041 32.9956 17.4411 32.6796 16.8785 32.117C16.3159 31.5544 15.9998 30.7913 15.9998 29.9957C15.9998 29.2 16.3159 28.437 16.8785 27.8744C17.4411 27.3118 18.2041 26.9957 18.9998 26.9957H50.1474L42.7955 19.0318C42.5281 18.7424 42.3203 18.4031 42.184 18.0334C42.0477 17.6637 41.9856 17.2707 42.0012 16.877C42.0168 16.4833 42.1098 16.0965 42.2749 15.7387C42.4401 15.3809 42.674 15.0592 42.9635 14.7918V14.7958Z" fill="#424B5A"/>
</svg>
