<svg width="21" height="26" viewBox="0 0 21 26" fill="none" xmlns="http://www.w3.org/2000/svg">
<path d="M17.4216 0H3.72228C2.99588 0.000765678 2.29946 0.271929 1.78581 0.754C1.27216 1.23607 0.983238 1.88968 0.982422 2.57143V24C0.982966 24.4545 1.17558 24.8902 1.51801 25.2116C1.86045 25.533 2.32473 25.7138 2.809 25.7143H18.3349C18.8192 25.7138 19.2834 25.533 19.6259 25.2116C19.9683 24.8902 20.1609 24.4545 20.1615 24V2.57143C20.1606 1.88968 19.8717 1.23607 19.3581 0.754C18.8444 0.271929 18.148 0.000765678 17.4216 0ZM18.3349 24H2.809V12H18.3349V24ZM18.3349 10.2857H2.809V2.57143C2.80928 2.34418 2.9056 2.12632 3.07681 1.96563C3.24802 1.80495 3.48015 1.71456 3.72228 1.71429H17.4216C17.6637 1.71456 17.8959 1.80495 18.0671 1.96563C18.2383 2.12632 18.3346 2.34418 18.3349 2.57143V10.2857Z" fill="#424B5A"/>
<path d="M4.18018 14.1429H6.00675V19.2857H4.18018V14.1429ZM4.18018 4.71431H6.00675V8.14288H4.18018V4.71431Z" fill="#424B5A"/>
</svg>
