<svg width="60" height="69" viewBox="0 0 60 69" fill="none" xmlns="http://www.w3.org/2000/svg">
<path d="M18.1071 2.3692C18.8304 0.917143 20.317 0 21.9375 0H38.0625C39.683 0 41.1696 0.917143 41.8929 2.3692L42.8571 4.28571H55.7143C58.0848 4.28571 60 6.20491 60 8.57143C60 10.9379 58.0848 12.8571 55.7143 12.8571H4.28571C1.9192 12.8571 0 10.9379 0 8.57143C0 6.20491 1.9192 4.28571 4.28571 4.28571H17.1429L18.1071 2.3692V2.3692ZM52.875 62.4241C52.6607 65.933 49.8616 68.5714 46.4598 68.5714H13.5402C10.1451 68.5714 7.33527 65.933 7.12366 62.4241L4.16518 17.1429H55.7143L52.875 62.4241Z" fill="#424B5A"/>
</svg>
