<svg width="60" height="66" viewBox="0 0 60 66" fill="none" xmlns="http://www.w3.org/2000/svg">
<path d="M21.8182 25.9091V50.4545C21.8182 50.8523 21.6903 51.179 21.4347 51.4347C21.179 51.6903 20.8523 51.8182 20.4545 51.8182H17.7273C17.3295 51.8182 17.0028 51.6903 16.7472 51.4347C16.4915 51.179 16.3636 50.8523 16.3636 50.4545V25.9091C16.3636 25.5114 16.4915 25.1847 16.7472 24.929C17.0028 24.6733 17.3295 24.5455 17.7273 24.5455H20.4545C20.8523 24.5455 21.179 24.6733 21.4347 24.929C21.6903 25.1847 21.8182 25.5114 21.8182 25.9091ZM32.7273 25.9091V50.4545C32.7273 50.8523 32.5994 51.179 32.3438 51.4347C32.0881 51.6903 31.7614 51.8182 31.3636 51.8182H28.6364C28.2386 51.8182 27.9119 51.6903 27.6563 51.4347C27.4006 51.179 27.2727 50.8523 27.2727 50.4545V25.9091C27.2727 25.5114 27.4006 25.1847 27.6563 24.929C27.9119 24.6733 28.2386 24.5455 28.6364 24.5455H31.3636C31.7614 24.5455 32.0881 24.6733 32.3438 24.929C32.5994 25.1847 32.7273 25.5114 32.7273 25.9091ZM43.6364 25.9091V50.4545C43.6364 50.8523 43.5085 51.179 43.2528 51.4347C42.9972 51.6903 42.6705 51.8182 42.2727 51.8182H39.5455C39.1477 51.8182 38.821 51.6903 38.5653 51.4347C38.3097 51.179 38.1818 50.8523 38.1818 50.4545V25.9091C38.1818 25.5114 38.3097 25.1847 38.5653 24.929C38.821 24.6733 39.1477 24.5455 39.5455 24.5455H42.2727C42.6705 24.5455 42.9972 24.6733 43.2528 24.929C43.5085 25.1847 43.6364 25.5114 43.6364 25.9091ZM49.0909 56.7614V16.3636H10.9091V56.7614C10.9091 57.3864 11.0085 57.9616 11.2074 58.4872C11.4063 59.0128 11.6122 59.3963 11.8253 59.6378C12.0384 59.8793 12.1875 60 12.2727 60H47.7273C47.8125 60 47.9616 59.8793 48.1747 59.6378C48.3878 59.3963 48.5938 59.0128 48.7926 58.4872C48.9915 57.9616 49.0909 57.3864 49.0909 56.7614ZM20.4545 10.9091H39.5455L37.5 5.9233C37.3011 5.66761 37.0597 5.51136 36.7756 5.45455H23.267C22.983 5.51136 22.7415 5.66761 22.5426 5.9233L20.4545 10.9091ZM60 12.2727V15C60 15.3977 59.8722 15.7244 59.6165 15.9801C59.3608 16.2358 59.0341 16.3636 58.6364 16.3636H54.5455V56.7614C54.5455 59.1193 53.8778 61.1577 52.5426 62.8764C51.2074 64.5952 49.6023 65.4545 47.7273 65.4545H12.2727C10.3977 65.4545 8.79261 64.6236 7.45739 62.9616C6.12216 61.2997 5.45455 59.2898 5.45455 56.9318V16.3636H1.36364C0.965909 16.3636 0.639205 16.2358 0.383523 15.9801C0.127841 15.7244 0 15.3977 0 15V12.2727C0 11.875 0.127841 11.5483 0.383523 11.2926C0.639205 11.0369 0.965909 10.9091 1.36364 10.9091H14.5313L17.5142 3.79261C17.9403 2.74148 18.7074 1.84659 19.8153 1.10795C20.9233 0.369318 22.0455 0 23.1818 0H36.8182C37.9545 0 39.0767 0.369318 40.1847 1.10795C41.2926 1.84659 42.0597 2.74148 42.4858 3.79261L45.4688 10.9091H58.6364C59.0341 10.9091 59.3608 11.0369 59.6165 11.2926C59.8722 11.5483 60 11.875 60 12.2727Z" fill="#424B5A"/>
</svg>
