<svg width="100" height="100" viewBox="0 0 100 100" fill="none" xmlns="http://www.w3.org/2000/svg">
<path fill-rule="evenodd" clip-rule="evenodd" d="M49.9999 21.2083L44.0843 16.1708C40.2774 13.842 35.8216 12.5 31.2499 12.5C18.4166 12.5 8.33325 22.5833 8.33325 35.4167C8.33325 51.1537 22.4767 63.9789 43.9054 83.4104L43.9583 83.4583L49.9999 88.9583L56.0416 83.5L56.2061 83.3505C77.5723 63.9343 91.6666 51.1264 91.6666 35.4167C91.6666 22.5833 81.5833 12.5 68.7499 12.5C64.1782 12.5 59.7225 13.842 55.9156 16.1708L49.9999 21.2083ZM80.5831 45.3122C76.5187 52.8759 70.2908 59.291 50.4372 77.3328L50.0212 77.7085L49.5681 77.296C29.7885 59.36 23.5189 52.9125 19.4416 45.3572C17.5497 41.8514 16.6666 38.6574 16.6666 35.4167C16.6666 27.1857 23.019 20.8333 31.2499 20.8333C35.9261 20.8333 40.6098 23.0348 43.6553 26.6112L49.9999 34.0617L56.3445 26.6112C59.39 23.0348 64.0738 20.8333 68.7499 20.8333C76.9809 20.8333 83.3332 27.1857 83.3332 35.4167C83.3332 38.6434 82.4579 41.8233 80.5831 45.3122Z" fill="#979797"/>
<mask id="mask0_240_11222" style="mask-type:alpha" maskUnits="userSpaceOnUse" x="8" y="12" width="84" height="77">
<path fill-rule="evenodd" clip-rule="evenodd" d="M49.9999 21.2083L44.0843 16.1708C40.2774 13.842 35.8216 12.5 31.2499 12.5C18.4166 12.5 8.33325 22.5833 8.33325 35.4167C8.33325 51.1537 22.4767 63.9789 43.9054 83.4104L43.9583 83.4583L49.9999 88.9583L56.0416 83.5L56.2061 83.3505C77.5723 63.9343 91.6666 51.1264 91.6666 35.4167C91.6666 22.5833 81.5833 12.5 68.7499 12.5C64.1782 12.5 59.7225 13.842 55.9156 16.1708L49.9999 21.2083ZM80.5831 45.3122C76.5187 52.8759 70.2908 59.291 50.4372 77.3328L50.0212 77.7085L49.5681 77.296C29.7885 59.36 23.5189 52.9125 19.4416 45.3572C17.5497 41.8514 16.6666 38.6574 16.6666 35.4167C16.6666 27.1857 23.019 20.8333 31.2499 20.8333C35.9261 20.8333 40.6098 23.0348 43.6553 26.6112L49.9999 34.0617L56.3445 26.6112C59.39 23.0348 64.0738 20.8333 68.7499 20.8333C76.9809 20.8333 83.3332 27.1857 83.3332 35.4167C83.3332 38.6434 82.4579 41.8233 80.5831 45.3122Z" fill="white"/>
</mask>
<g mask="url(#mask0_240_11222)">
<rect width="100" height="100" fill="#C1B18A"/>
</g>
</svg>
