<svg width="80" height="73" viewBox="0 0 80 73" fill="none" xmlns="http://www.w3.org/2000/svg">
<path d="M3.17619e-07 21.6037C-0.000491928 18.7332 0.571182 15.8913 1.68161 13.2443C2.79204 10.5972 4.41895 8.19808 6.46725 6.18702C8.51556 4.17596 10.9442 2.59334 13.6111 1.53166C16.2781 0.469985 19.13 -0.0494537 22 0.00370429C25.3958 -0.0143297 28.7568 0.689582 31.86 2.06879C34.9632 3.44799 37.7378 5.47099 40 8.0037C42.2622 5.47099 45.0368 3.44799 48.14 2.06879C51.2432 0.689582 54.6042 -0.0143297 58 0.00370429C60.87 -0.0494537 63.7219 0.469985 66.3889 1.53166C69.0558 2.59334 71.4844 4.17596 73.5327 6.18702C75.581 8.19808 77.208 10.5972 78.3184 13.2443C79.4288 15.8913 80.0005 18.7332 80 21.6037C80 43.0277 54.484 59.2037 40 72.0037C25.548 59.0957 3.17619e-07 43.0437 3.17619e-07 21.6037Z" fill="#C1B18A"/>
</svg>
