<svg width="23" height="22" viewBox="0 0 23 22" fill="none" xmlns="http://www.w3.org/2000/svg">
<path d="M4.64498 5.5C4.24649 6.105 4.17616 6.567 4.17616 7.018C4.17616 7.865 5.34822 9.9 5.34822 11C5.34822 12.045 4.87939 12.65 4.87939 12.65H3.12132C3.12132 12.65 3.59014 12.045 3.59014 11C3.59014 9.9 2.41808 7.865 2.41808 7.018C2.41808 6.567 2.48841 6.105 2.88691 5.5H4.64498ZM10.5052 5.5C10.1067 6.105 10.0364 6.567 10.0364 7.018C10.0364 7.865 11.2085 9.9 11.2085 11C11.2085 12.045 10.7397 12.65 10.7397 12.65H12.4977C12.4977 12.65 12.9666 12.045 12.9666 11C12.9666 9.9 11.7945 7.865 11.7945 7.018C11.7945 6.567 11.8648 6.105 12.2633 5.5H10.5052ZM6.69607 5.5C6.29758 6.105 6.22725 6.567 6.22725 7.018C6.22725 7.865 7.39931 9.911 7.39931 11C7.39931 12.045 6.93049 12.65 6.93049 12.65H8.68857C8.68857 12.65 9.15739 12.045 9.15739 11C9.15739 9.9 7.98533 7.865 7.98533 7.018C7.98533 6.567 8.05566 6.105 8.45415 5.5H6.69607ZM18.944 0C17.1391 0 15.6506 1.276 15.4513 2.915L14.1738 14.3H1.84378C1.14055 14.3 0.566241 14.883 0.671726 15.543C1.28119 19.206 4.63326 22 8.57136 22C12.6501 22 16.0022 18.997 16.4358 15.147L17.7837 3.19C17.8423 2.629 18.3346 2.2 18.944 2.2C19.5887 2.2 20.1161 2.695 20.1161 3.3C20.1161 3.63 19.9989 4.675 19.9989 4.675L22.3078 4.95C22.3078 4.95 22.4602 3.784 22.4602 3.3C22.4602 1.485 20.8779 0 18.944 0ZM8.57136 19.8C6.29758 19.8 4.26993 18.447 3.37917 16.5H13.6815C12.8376 18.458 10.8451 19.8 8.57136 19.8Z" fill="#424B5A"/>
</svg>
