<svg width="22" height="25" viewBox="0 0 22 25" fill="none" xmlns="http://www.w3.org/2000/svg">
<path d="M19.705 1H2.9233C2.26128 1 1.72461 1.50368 1.72461 2.125V22.375C1.72461 22.9963 2.26128 23.5 2.9233 23.5H19.705C20.367 23.5 20.9036 22.9963 20.9036 22.375V2.125C20.9036 1.50368 20.367 1 19.705 1Z" stroke="#424B5A" stroke-width="1.5"/>
<path d="M1.72461 7.46875H20.9036" stroke="#424B5A" stroke-width="1.5" stroke-linecap="round" stroke-linejoin="round"/>
<path d="M13.7114 5.5C14.3734 5.5 14.9101 4.99632 14.9101 4.375C14.9101 3.75368 14.3734 3.25 13.7114 3.25C13.0494 3.25 12.5127 3.75368 12.5127 4.375C12.5127 4.99632 13.0494 5.5 13.7114 5.5Z" fill="#424B5A"/>
<path d="M17.3076 5.5C17.9696 5.5 18.5063 4.99632 18.5063 4.375C18.5063 3.75368 17.9696 3.25 17.3076 3.25C16.6456 3.25 16.1089 3.75368 16.1089 4.375C16.1089 4.99632 16.6456 5.5 17.3076 5.5Z" fill="#424B5A"/>
<path d="M11.3141 19.5625C13.6311 19.5625 15.5095 17.7996 15.5095 15.625C15.5095 13.4504 13.6311 11.6875 11.3141 11.6875C8.997 11.6875 7.11865 13.4504 7.11865 15.625C7.11865 17.7996 8.997 19.5625 11.3141 19.5625Z" stroke="#424B5A" stroke-width="1.5"/>
</svg>
