<svg width="40" height="26" viewBox="0 0 40 26" fill="none" xmlns="http://www.w3.org/2000/svg">
<path d="M22.595 1.17626L39.1398 20.0875C41.0923 22.3126 39.5055 25.8071 36.5422 25.8071H3.45266C2.78948 25.8077 2.14018 25.6171 1.58254 25.2581C1.02489 24.8992 0.582533 24.3871 0.308434 23.7832C0.0343351 23.1793 -0.0598853 22.5092 0.0370575 21.8532C0.134 21.1971 0.417997 20.5829 0.855036 20.0841L17.3998 1.17971C17.7236 0.809184 18.1229 0.512212 18.5709 0.308736C19.019 0.10526 19.5054 -1.36101e-05 19.9974 -1.36101e-05C20.4895 -1.36101e-05 20.9759 0.10526 21.4239 0.308736C21.8719 0.512212 22.2713 0.809184 22.595 1.17971V1.17626Z" fill="#424B5A"/>
</svg>
