<svg width="58" height="58" viewBox="0 0 58 58" fill="none" xmlns="http://www.w3.org/2000/svg">
<path fill-rule="evenodd" clip-rule="evenodd" d="M7.17248e-07 4.84564C7.17248e-07 3.5605 0.510522 2.32799 1.41925 1.41926C2.32799 0.510527 3.56049 6.45992e-06 4.84564 6.45992e-06H53.1491C53.786 -0.00103372 54.4168 0.123554 55.0055 0.366637C55.5941 0.609719 56.1291 0.966523 56.5797 1.41662C57.0302 1.86672 57.3876 2.40127 57.6314 2.98967C57.8751 3.57807 58.0003 4.20876 58 4.84564V53.1491C58.0007 53.7861 57.8758 54.417 57.6324 55.0057C57.389 55.5943 57.032 56.1293 56.5817 56.5798C56.1314 57.0304 55.5966 57.3877 55.0081 57.6314C54.4195 57.8751 53.7887 58.0003 53.1517 58H4.84564C4.20908 58 3.57875 57.8746 2.99068 57.6309C2.40261 57.3872 1.86832 57.0301 1.41832 56.5798C0.968329 56.1296 0.611457 55.5951 0.368096 55.0069C0.124735 54.4187 -0.000345616 53.7883 7.17248e-07 53.1517V4.84564ZM22.9575 22.1138H30.8112V26.0578C31.9448 23.7906 34.8448 21.75 39.2027 21.75C47.5574 21.75 49.5373 26.2661 49.5373 34.5522V49.9011H41.0825V36.4398C41.0825 31.7207 39.9488 29.058 37.0699 29.058C33.0758 29.058 31.4149 31.929 31.4149 36.4398V49.9011H22.9575V22.1138ZM8.45746 49.5399H16.9149V21.75H8.45746V49.5373V49.5399ZM18.125 12.6862C18.1409 13.4103 18.0121 14.1304 17.746 14.804C17.4799 15.4777 17.0819 16.0914 16.5754 16.6092C16.0689 17.127 15.4641 17.5383 14.7965 17.8192C14.1288 18.1001 13.4118 18.2447 12.6875 18.2447C11.9632 18.2447 11.2462 18.1001 10.5785 17.8192C9.91089 17.5383 9.30607 17.127 8.79957 16.6092C8.29307 16.0914 7.8951 15.4777 7.62901 14.804C7.36291 14.1304 7.23405 13.4103 7.25 12.6862C7.2813 11.2648 7.86792 9.91218 8.88424 8.918C9.90056 7.92381 11.2658 7.36711 12.6875 7.36711C14.1092 7.36711 15.4744 7.92381 16.4908 8.918C17.5071 9.91218 18.0937 11.2648 18.125 12.6862V12.6862Z" fill="#424B5A"/>
</svg>
