<svg width="80" height="100" viewBox="0 0 80 100" fill="none" xmlns="http://www.w3.org/2000/svg">
<path d="M40 0C26.215 0 15 11.215 15 25V35H10C4.485 35 0 39.485 0 45V90C0 95.515 4.485 100 10 100H70C75.515 100 80 95.515 80 90V45C80 39.485 75.515 35 70 35H65V25C65 11.215 53.785 0 40 0ZM25 25C25 16.73 31.73 10 40 10C48.27 10 55 16.73 55 25V35H25V25ZM70.01 90H45V78.61C47.975 76.875 50 73.685 50 70C50 64.485 45.515 60 40 60C34.485 60 30 64.485 30 70C30 73.68 32.025 76.875 35 78.61V90H10V45H70L70.01 90V90Z" fill="#C1B18A"/>
</svg>
