<svg width="195" height="195" viewBox="0 0 195 195" fill="none" xmlns="http://www.w3.org/2000/svg">
<mask id="mask0_484_11438" style="mask-type:alpha" maskUnits="userSpaceOnUse" x="0" y="0" width="195" height="195">
<circle cx="97.5" cy="97.5" r="97.5" fill="white"/>
</mask>
<g mask="url(#mask0_484_11438)">
<rect x="-5" y="0.649658" width="200" height="201.911" fill="#424B5A"/>
<path d="M-5.5 200V189.5H-2.25C1.41667 189.5 4.75 189.167 7.75 188.5C10.9167 187.667 13.4167 186.083 15.25 183.75C17.25 181.25 18.25 177.583 18.25 172.75V49C18.25 44 17.25 40.3333 15.25 38C13.4167 35.5 10.9167 33.9167 7.75 33.25C4.75 32.4167 1.41667 32 -2.25 32H-5.5V21.5H61.75C76.25 21.5 88.25 23.3333 97.75 27C107.25 30.5 114.333 35.8333 119 43C123.667 50 126 58.9167 126 69.75C126 78.5833 124.167 86.0833 120.5 92.25C116.833 98.25 112.167 103.083 106.5 106.75C101 110.417 95.25 113.25 89.25 115.25L123.5 169.5C125.667 172.833 127.75 175.75 129.75 178.25C131.75 180.75 133.75 182.833 135.75 184.5C137.917 186.167 140.083 187.417 142.25 188.25C144.583 189.083 147.083 189.5 149.75 189.5H150.5V200H147C139.167 200 132.667 199.75 127.5 199.25C122.5 198.583 118.333 197.5 115 196C111.667 194.333 108.667 192 106 189C103.5 186 100.833 182.167 98 177.5L64.25 121.25H43.5V172.75C43.5 177.583 44.4167 181.25 46.25 183.75C48.25 186.083 50.75 187.667 53.75 188.5C56.9167 189.167 60.3333 189.5 64 189.5H67.25V200H-5.5ZM61 109.5C70.8333 109.5 78.5 108.083 84 105.25C89.5 102.25 93.4167 97.9167 95.75 92.25C98.0833 86.4167 99.25 79.1667 99.25 70.5C99.25 61.5 98 54.3333 95.5 49C93 43.5 88.9167 39.5833 83.25 37.25C77.5833 34.75 70 33.5 60.5 33.5H43.5V109.5H61Z" fill="white"/>
</g>
</svg>
