<svg width="30" height="30" viewBox="0 0 30 30" fill="none" xmlns="http://www.w3.org/2000/svg">
<circle cx="15" cy="15" r="14.75" stroke="#C1B18A" stroke-width="0.5"/>
<path fill-rule="evenodd" clip-rule="evenodd" d="M14.5715 14.5714C16.9391 14.5714 18.8572 12.6534 18.8572 10.2857C18.8572 7.91804 16.9391 6 14.5715 6C12.2038 6 10.2857 7.91804 10.2857 10.2857C10.2857 12.6534 12.2038 14.5714 14.5715 14.5714ZM14.5715 7.71429C15.9924 7.71429 17.1429 8.86482 17.1429 10.2857C17.1429 11.7066 15.9924 12.8571 14.5715 12.8571C13.1506 12.8571 12 11.7066 12 10.2857C12 8.86482 13.1506 7.71429 14.5715 7.71429ZM22.2857 22.2857C22.2857 22.7591 21.902 23.1429 21.4286 23.1429C20.9552 23.1429 20.5715 22.7591 20.5715 22.2857V20.5714C20.5715 19.3199 17.2766 18 14.5715 18C11.8663 18 8.57146 19.3199 8.57146 20.5714L8.57146 22.2857C8.57146 22.7591 8.18771 23.1429 7.71432 23.1429C7.24093 23.1429 6.85718 22.7591 6.85718 22.2857V20.5714C6.85718 17.9445 10.998 16.2857 14.5715 16.2857C18.1449 16.2857 22.2857 17.9445 22.2857 20.5714V22.2857Z" fill="#C1B18A"/>
<mask id="mask0_291_11280" style="mask-type:alpha" maskUnits="userSpaceOnUse" x="6" y="6" width="17" height="18">
<path fill-rule="evenodd" clip-rule="evenodd" d="M14.5715 14.5714C16.9391 14.5714 18.8572 12.6534 18.8572 10.2857C18.8572 7.91804 16.9391 6 14.5715 6C12.2038 6 10.2857 7.91804 10.2857 10.2857C10.2857 12.6534 12.2038 14.5714 14.5715 14.5714ZM14.5715 7.71429C15.9924 7.71429 17.1429 8.86482 17.1429 10.2857C17.1429 11.7066 15.9924 12.8571 14.5715 12.8571C13.1506 12.8571 12 11.7066 12 10.2857C12 8.86482 13.1506 7.71429 14.5715 7.71429ZM22.2857 22.2857C22.2857 22.7591 21.902 23.1429 21.4286 23.1429C20.9552 23.1429 20.5715 22.7591 20.5715 22.2857V20.5714C20.5715 19.3199 17.2766 18 14.5715 18C11.8663 18 8.57146 19.3199 8.57146 20.5714L8.57146 22.2857C8.57146 22.7591 8.18771 23.1429 7.71432 23.1429C7.24093 23.1429 6.85718 22.7591 6.85718 22.2857V20.5714C6.85718 17.9445 10.998 16.2857 14.5715 16.2857C18.1449 16.2857 22.2857 17.9445 22.2857 20.5714V22.2857Z" fill="white"/>
</mask>
<g mask="url(#mask0_291_11280)">
<rect x="4.28577" y="4.28564" width="20.5714" height="20.5714" fill="#C1B18A"/>
</g>
</svg>
