<svg width="60" height="39" viewBox="0 0 60 39" fill="none" xmlns="http://www.w3.org/2000/svg">
<path d="M18 18C22.9706 18 27 13.9706 27 9C27 4.02944 22.9706 0 18 0C13.0294 0 9 4.02944 9 9C9 13.9706 13.0294 18 18 18Z" fill="#C1B18A"/>
<path d="M42 18C46.9706 18 51 13.9706 51 9C51 4.02944 46.9706 0 42 0C37.0294 0 33 4.02944 33 9C33 13.9706 37.0294 18 42 18Z" fill="#C1B18A"/>
<path d="M42 21C51.93 21 60 26.37 60 33V39H42V33C42 28.56 38.37 24.69 33 22.62C35.64 21.57 38.73 21 42 21ZM18 21C27.93 21 36 26.37 36 33V39H0V33C0 26.37 8.07 21 18 21Z" fill="#C1B18A"/>
</svg>
