<svg width="60" height="60" viewBox="0 0 60 60" fill="none" xmlns="http://www.w3.org/2000/svg">
<circle cx="30" cy="30" r="29.75" fill="#C1B18A" stroke="#C1B18A" stroke-width="0.5"/>
<path fill-rule="evenodd" clip-rule="evenodd" d="M29.1428 29.1429C33.8781 29.1429 37.7142 25.3068 37.7142 20.5714C37.7142 15.8361 33.8781 12 29.1428 12C24.4075 12 20.5714 15.8361 20.5714 20.5714C20.5714 25.3068 24.4075 29.1429 29.1428 29.1429ZM29.1428 15.4286C31.9846 15.4286 34.2857 17.7296 34.2857 20.5714C34.2857 23.4132 31.9846 25.7143 29.1428 25.7143C26.301 25.7143 23.9999 23.4132 23.9999 20.5714C23.9999 17.7296 26.301 15.4286 29.1428 15.4286ZM44.5714 44.5714C44.5714 45.5182 43.8039 46.2857 42.8571 46.2857C41.9103 46.2857 41.1428 45.5182 41.1428 44.5714V41.1429C41.1428 38.6398 34.5531 36 29.1428 36C23.7325 36 17.1428 38.6398 17.1428 41.1429L17.1428 44.5714C17.1428 45.5182 16.3753 46.2857 15.4285 46.2857C14.4817 46.2857 13.7142 45.5182 13.7142 44.5714V41.1429C13.7142 35.8891 21.9959 32.5714 29.1428 32.5714C36.2897 32.5714 44.5714 35.8891 44.5714 41.1429V44.5714Z" fill="white"/>
<mask id="mask0_299_11169" style="mask-type:alpha" maskUnits="userSpaceOnUse" x="13" y="12" width="32" height="35">
<path fill-rule="evenodd" clip-rule="evenodd" d="M29.1428 29.1429C33.8781 29.1429 37.7142 25.3068 37.7142 20.5714C37.7142 15.8361 33.8781 12 29.1428 12C24.4075 12 20.5714 15.8361 20.5714 20.5714C20.5714 25.3068 24.4075 29.1429 29.1428 29.1429ZM29.1428 15.4286C31.9846 15.4286 34.2857 17.7296 34.2857 20.5714C34.2857 23.4132 31.9846 25.7143 29.1428 25.7143C26.301 25.7143 23.9999 23.4132 23.9999 20.5714C23.9999 17.7296 26.301 15.4286 29.1428 15.4286ZM44.5714 44.5714C44.5714 45.5182 43.8039 46.2857 42.8571 46.2857C41.9103 46.2857 41.1428 45.5182 41.1428 44.5714V41.1429C41.1428 38.6398 34.5531 36 29.1428 36C23.7325 36 17.1428 38.6398 17.1428 41.1429L17.1428 44.5714C17.1428 45.5182 16.3753 46.2857 15.4285 46.2857C14.4817 46.2857 13.7142 45.5182 13.7142 44.5714V41.1429C13.7142 35.8891 21.9959 32.5714 29.1428 32.5714C36.2897 32.5714 44.5714 35.8891 44.5714 41.1429V44.5714Z" fill="white"/>
</mask>
<g mask="url(#mask0_299_11169)">
<rect x="8.57141" y="8.57129" width="41.1429" height="41.1429" fill="white"/>
</g>
</svg>
