<svg width="60" height="60" viewBox="0 0 60 60" fill="none" xmlns="http://www.w3.org/2000/svg">
<circle cx="30" cy="30" r="30" fill="#C1B18A"/>
<path d="M30.8571 16.5713C22.98 16.5713 16.5714 21.6984 16.5714 27.9999C16.5714 32.1541 19.2828 35.8799 23.7143 37.9056V45.1427L31.3428 39.4213C38.9957 39.217 45.1428 34.1713 45.1428 27.9999C45.1428 21.6984 38.7343 16.5713 30.8571 16.5713ZM30.8571 36.5713H30.3814L26.5714 39.4284V35.9756L25.6557 35.6227C21.8143 34.1441 19.4286 31.2227 19.4286 27.9999C19.4286 23.2727 24.5557 19.4284 30.8571 19.4284C37.1586 19.4284 42.2857 23.2727 42.2857 27.9999C42.2857 32.727 37.1586 36.5713 30.8571 36.5713Z" fill="white"/>
</svg>
