<svg width="30" height="30" viewBox="0 0 30 30" fill="none" xmlns="http://www.w3.org/2000/svg">
<circle cx="15" cy="15" r="14.75" stroke="#C1B18A" stroke-width="0.5"/>
<g clip-path="url(#clip0_291_11260)">
<path d="M15.4285 7.71436C11.1749 7.71436 7.71423 10.483 7.71423 13.8858C7.71423 16.1291 9.1784 18.141 11.5714 19.2349V23.1429L15.6908 20.0534C19.8233 19.943 23.1428 17.2184 23.1428 13.8858C23.1428 10.483 19.6822 7.71436 15.4285 7.71436ZM15.4285 18.5144H15.1716L13.1142 20.0572V18.1927L12.6197 18.0021C10.5454 17.2037 9.25709 15.6261 9.25709 13.8858C9.25709 11.3331 12.0257 9.25721 15.4285 9.25721C18.8313 9.25721 21.5999 11.3331 21.5999 13.8858C21.5999 16.4384 18.8313 18.5144 15.4285 18.5144Z" fill="#C1B18A"/>
</g>
<defs>
<clipPath id="clip0_291_11260">
<rect width="15.4286" height="15.4286" fill="white" transform="translate(7.71423 7.71436)"/>
</clipPath>
</defs>
</svg>
