<svg width="40" height="26" viewBox="0 0 40 26" fill="none" xmlns="http://www.w3.org/2000/svg">
<path d="M17.405 24.6309L0.860186 5.7196C-1.09234 3.49455 0.494517 1.26847e-06 3.45781 1.26847e-06H36.5473C37.2105 -0.000567336 37.8598 0.190037 38.4175 0.548989C38.9751 0.907941 39.4175 1.42002 39.6916 2.02392C39.9657 2.62781 40.0599 3.29791 39.9629 3.95397C39.866 4.61003 39.582 5.22424 39.145 5.72305L22.6002 24.6274C22.2764 24.9979 21.8771 25.2949 21.4291 25.4984C20.981 25.7019 20.4946 25.8071 20.0026 25.8071C19.5105 25.8071 19.0241 25.7019 18.5761 25.4984C18.1281 25.2949 17.7287 24.9979 17.405 24.6274V24.6309Z" fill="#424B5A"/>
</svg>
