<svg width="20" height="25" viewBox="0 0 20 25" fill="none" xmlns="http://www.w3.org/2000/svg">
<path d="M15.175 7.55L15.15 7.5625C15.4375 7.9 15.6875 8.3 15.875 8.7125L15.9875 8.95C16.875 11.0625 16.25 13.5 14.6125 15.025C13.125 16.3875 11.05 16.75 9.125 16.5C7.3 16.275 5.625 15.125 4.6625 13.5375C4.375 13.05 4.125 12.5 4 11.9375C3.8375 11.475 3.7875 11.025 3.75 10.5625C3.6375 8.5625 4.4375 6.4375 5.95 5.1875C5.2625 6.7 5.425 8.5875 6.4375 9.9L6.575 10.0625C6.75 10.2125 6.9625 10.2625 7.1625 10.175C7.35 10.1 7.5 9.9125 7.5 9.6875L7.4125 9.4125C6.3125 6.5125 7.2375 3.125 9.575 1.2125C10.2125 0.6875 11 0.2125 11.825 0C10.975 1.7 11.25 3.925 12.6125 5.2625C13.1875 5.85 13.875 6.2375 14.475 6.7875L15.175 7.55ZM12.325 13.35L12.3125 13.3375C12.875 12.85 13.1875 12.0125 13.1625 11.2625L13.125 10.8625C12.875 9.6125 11.7875 9.2 11.0875 8.2875C10.875 8.0125 10.6875 7.6625 10.55 7.3125C10.275 7.9375 10.25 8.525 10.3625 9.2C10.4875 9.9125 10.775 10.525 10.625 11.2625C10.425 12.075 9.7875 12.8875 8.675 13.15C9.3 13.7625 10.3125 14.25 11.325 13.9C11.65 13.8125 12.0625 13.575 12.325 13.35ZM8.75 19.0625V20.3125C8.75 21 9.3125 21.5625 10 21.5625C10.6875 21.5625 11.25 21 11.25 20.3125V19.0625H13.75V20.3125C13.75 21 14.3125 21.5625 15 21.5625C15.6875 21.5625 16.25 21 16.25 20.3125V19.0625C17.6375 19.0625 20 20.1875 20 21.5625V24.0625H0V21.5625C0 20.1875 2.375 19.0625 3.75 19.0625V20.3125C3.75 21 4.3125 21.5625 5 21.5625C5.6875 21.5625 6.25 21 6.25 20.3125V19.0625H8.75Z" fill="#424B5A"/>
</svg>
