<svg width="30" height="30" viewBox="0 0 30 30" fill="none" xmlns="http://www.w3.org/2000/svg">
<circle cx="15" cy="15" r="14.75" stroke="#C1B18A" stroke-width="0.5"/>
<path fill-rule="evenodd" clip-rule="evenodd" d="M21.4286 14.1429V18.5021L22.6408 19.7143C22.9623 20.0358 23.1429 20.4718 23.1429 20.9265V21C23.1429 21.7101 22.5673 22.2857 21.8572 22.2857H8.14289C7.43281 22.2857 6.85718 21.7101 6.85718 21V20.9265C6.85718 20.4718 7.03779 20.0358 7.35928 19.7143L8.57146 18.5021V14.1429C8.57146 11.3821 10.3265 8.97844 12.8579 8.08527C12.8884 6.92715 13.8345 6 15 6C16.1656 6 17.1117 6.92715 17.1421 8.08527C19.6736 8.97844 21.4286 11.3821 21.4286 14.1429ZM13.2857 23.1429C13.2857 24.0857 14.0572 24.8571 15 24.8571C15.9429 24.8571 16.7143 24.0857 16.7143 23.1429H13.2857ZM19.7143 14.1429V19.2122L21.0736 20.5714H8.9265L10.2857 19.2122V14.1429C10.2857 11.9479 11.7997 10.0602 13.9119 9.55977L14.5715 9.4035V8.14286C14.5715 7.90482 14.762 7.71429 15 7.71429C15.2381 7.71429 15.4286 7.90482 15.4286 8.14286V9.4035L16.0881 9.55977C18.2003 10.0602 19.7143 11.9479 19.7143 14.1429Z" fill="#C2D1D9"/>
<mask id="mask0_291_11265" style="mask-type:alpha" maskUnits="userSpaceOnUse" x="6" y="6" width="18" height="19">
<path fill-rule="evenodd" clip-rule="evenodd" d="M21.4286 14.1429V18.5021L22.6408 19.7143C22.9623 20.0358 23.1429 20.4718 23.1429 20.9265V21C23.1429 21.7101 22.5673 22.2857 21.8572 22.2857H8.14289C7.43281 22.2857 6.85718 21.7101 6.85718 21V20.9265C6.85718 20.4718 7.03779 20.0358 7.35928 19.7143L8.57146 18.5021V14.1429C8.57146 11.3821 10.3265 8.97844 12.8579 8.08527C12.8884 6.92715 13.8345 6 15 6C16.1656 6 17.1117 6.92715 17.1421 8.08527C19.6736 8.97844 21.4286 11.3821 21.4286 14.1429ZM13.2857 23.1429C13.2857 24.0857 14.0572 24.8571 15 24.8571C15.9429 24.8571 16.7143 24.0857 16.7143 23.1429H13.2857ZM19.7143 14.1429V19.2122L21.0736 20.5714H8.9265L10.2857 19.2122V14.1429C10.2857 11.9479 11.7997 10.0602 13.9119 9.55977L14.5715 9.4035V8.14286C14.5715 7.90482 14.762 7.71429 15 7.71429C15.2381 7.71429 15.4286 7.90482 15.4286 8.14286V9.4035L16.0881 9.55977C18.2003 10.0602 19.7143 11.9479 19.7143 14.1429Z" fill="white"/>
</mask>
<g mask="url(#mask0_291_11265)">
<rect x="4.28577" y="5.14307" width="20.5714" height="20.5714" fill="#C1B18A"/>
</g>
</svg>
