<svg width="60" height="60" viewBox="0 0 60 60" fill="none" xmlns="http://www.w3.org/2000/svg">
<circle cx="30" cy="30" r="29.75" fill="#C1B18A" stroke="#C1B18A" stroke-width="0.5"/>
<path fill-rule="evenodd" clip-rule="evenodd" d="M42.8572 28.2857V37.0042L45.2816 39.4286C45.9246 40.0716 46.2858 40.9436 46.2858 41.8529V42C46.2858 43.4202 45.1345 44.5714 43.7144 44.5714H16.2858C14.8656 44.5714 13.7144 43.4202 13.7144 42V41.8529C13.7144 40.9436 14.0756 40.0716 14.7186 39.4286L17.1429 37.0042V28.2857C17.1429 22.7642 20.653 17.9569 25.7159 16.1705C25.7768 13.8543 27.669 12 30.0001 12C32.3312 12 34.2234 13.8543 34.2843 16.1705C39.3472 17.9569 42.8572 22.7642 42.8572 28.2857ZM26.5715 46.2857C26.5715 48.1714 28.1144 49.7143 30.0001 49.7143C31.8858 49.7143 33.4286 48.1714 33.4286 46.2857H26.5715ZM39.4286 28.2857V38.4244L42.1471 41.1429H17.853L20.5715 38.4244V28.2857C20.5715 23.8958 23.5995 20.1204 27.8239 19.1195L29.1429 18.807V16.2857C29.1429 15.8096 29.524 15.4286 30.0001 15.4286C30.4762 15.4286 30.8572 15.8096 30.8572 16.2857V18.807L32.1763 19.1195C36.4007 20.1204 39.4286 23.8958 39.4286 28.2857Z" fill="#C2D1D9"/>
<mask id="mask0_299_11187" style="mask-type:alpha" maskUnits="userSpaceOnUse" x="13" y="12" width="34" height="38">
<path fill-rule="evenodd" clip-rule="evenodd" d="M42.8572 28.2857V37.0042L45.2816 39.4286C45.9246 40.0716 46.2858 40.9436 46.2858 41.8529V42C46.2858 43.4202 45.1345 44.5714 43.7144 44.5714H16.2858C14.8656 44.5714 13.7144 43.4202 13.7144 42V41.8529C13.7144 40.9436 14.0756 40.0716 14.7186 39.4286L17.1429 37.0042V28.2857C17.1429 22.7642 20.653 17.9569 25.7159 16.1705C25.7768 13.8543 27.669 12 30.0001 12C32.3312 12 34.2234 13.8543 34.2843 16.1705C39.3472 17.9569 42.8572 22.7642 42.8572 28.2857ZM26.5715 46.2857C26.5715 48.1714 28.1144 49.7143 30.0001 49.7143C31.8858 49.7143 33.4286 48.1714 33.4286 46.2857H26.5715ZM39.4286 28.2857V38.4244L42.1471 41.1429H17.853L20.5715 38.4244V28.2857C20.5715 23.8958 23.5995 20.1204 27.8239 19.1195L29.1429 18.807V16.2857C29.1429 15.8096 29.524 15.4286 30.0001 15.4286C30.4762 15.4286 30.8572 15.8096 30.8572 16.2857V18.807L32.1763 19.1195C36.4007 20.1204 39.4286 23.8958 39.4286 28.2857Z" fill="white"/>
</mask>
<g mask="url(#mask0_299_11187)">
<rect x="8.57153" y="10.2856" width="41.1429" height="41.1429" fill="white"/>
</g>
</svg>
