<svg width="60" height="60" viewBox="0 0 60 60" fill="none" xmlns="http://www.w3.org/2000/svg">
<path d="M3.33333 0H56.6667C57.5507 0 58.3986 0.351189 59.0237 0.976311C59.6488 1.60143 60 2.44928 60 3.33333V56.6667C60 57.5507 59.6488 58.3986 59.0237 59.0237C58.3986 59.6488 57.5507 60 56.6667 60H3.33333C2.44928 60 1.60143 59.6488 0.976311 59.0237C0.351189 58.3986 0 57.5507 0 56.6667V3.33333C0 2.44928 0.351189 1.60143 0.976311 0.976311C1.60143 0.351189 2.44928 0 3.33333 0V0ZM6.66667 6.66667V53.3333H53.3333V6.66667H6.66667ZM20 13.3333H31.6667C34.7609 13.3333 37.7283 14.5625 39.9162 16.7504C42.1042 18.9383 43.3333 21.9058 43.3333 25C43.3333 28.0942 42.1042 31.0617 39.9162 33.2496C37.7283 35.4375 34.7609 36.6667 31.6667 36.6667H26.6667V46.6667H20V13.3333ZM26.6667 20V30H31.6667C32.9927 30 34.2645 29.4732 35.2022 28.5355C36.1399 27.5979 36.6667 26.3261 36.6667 25C36.6667 23.6739 36.1399 22.4021 35.2022 21.4645C34.2645 20.5268 32.9927 20 31.6667 20H26.6667Z" fill="#424B5A"/>
</svg>
