<svg width="60" height="61" viewBox="0 0 60 61" fill="none" xmlns="http://www.w3.org/2000/svg">
<path d="M45.8654 0.0309107C45.3485 0.0864822 44.8654 0.314979 44.4946 0.679372L30 15.1763L22.4285 7.60014C22.2103 7.3821 21.9513 7.20916 21.6662 7.09122C21.3812 6.97327 21.0757 6.91262 20.7673 6.91273C20.4588 6.91283 20.1534 6.9737 19.8684 7.09184C19.5835 7.20999 19.3246 7.3831 19.1065 7.6013C18.6662 8.04196 18.4189 8.63951 18.4191 9.2625C18.4192 9.57096 18.4801 9.87639 18.5982 10.1613C18.7164 10.4463 18.8895 10.7052 19.1077 10.9232L26.6815 18.4924H6.92308C5.08696 18.4924 3.32605 19.2218 2.02772 20.5202C0.729393 21.8185 0 23.5794 0 25.4155L0 53.1078C0 54.9439 0.729393 56.7049 2.02772 58.0032C3.32605 59.3015 5.08696 60.0309 6.92308 60.0309H53.0769C54.913 60.0309 56.6739 59.3015 57.9723 58.0032C59.2706 56.7049 60 54.9439 60 53.1078V25.4155C60 23.5794 59.2706 21.8185 57.9723 20.5202C56.6739 19.2218 54.913 18.4924 53.0769 18.4924H33.3162L47.8131 3.99783C48.1762 3.66021 48.421 3.2146 48.5111 2.72699C48.6012 2.23939 48.5318 1.73574 48.3133 1.29063C48.0948 0.845531 47.7387 0.482658 47.2978 0.255765C46.8569 0.0288717 46.3546 -0.0499727 45.8654 0.0309107V0.0309107ZM24.2308 23.1078C41.4115 23.1078 43.8462 23.1563 43.8462 39.2617C43.8462 55.3694 41.2431 55.4155 24.2308 55.4155C7.14 55.4155 4.61538 55.2448 4.61538 39.2617C4.61538 23.2832 7.14 23.1078 24.2308 23.1078ZM51.9231 29.8878C53.9215 29.8878 55.53 31.494 55.53 33.4924C55.5309 33.9664 55.4382 34.4358 55.2573 34.8738C55.0764 35.3119 54.8107 35.7098 54.4756 36.045C54.1405 36.3801 53.7425 36.6457 53.3045 36.8267C52.8664 37.0076 52.397 37.1003 51.9231 37.0994C51.4491 37.1006 50.9795 37.0081 50.5413 36.8273C50.1032 36.6465 49.7051 36.3808 49.3699 36.0456C49.0347 35.7105 48.7691 35.3124 48.5882 34.8742C48.4074 34.436 48.3149 33.9665 48.3162 33.4924C48.3152 33.0185 48.4079 32.5491 48.5889 32.1111C48.7698 31.673 49.0354 31.275 49.3706 30.9399C49.7057 30.6048 50.1037 30.3392 50.5417 30.1582C50.9797 29.9773 51.4492 29.8846 51.9231 29.8855V29.8878ZM51.9231 39.1186C53.9215 39.1186 55.53 40.7248 55.53 42.7232C55.5309 43.1971 55.4382 43.6666 55.2573 44.1046C55.0764 44.5426 54.8107 44.9406 54.4756 45.2757C54.1405 45.6108 53.7425 45.8765 53.3045 46.0574C52.8664 46.2384 52.397 46.3311 51.9231 46.3301C51.4491 46.3314 50.9795 46.2389 50.5413 46.0581C50.1032 45.8772 49.7051 45.6116 49.3699 45.2764C49.0347 44.9412 48.7691 44.5431 48.5882 44.105C48.4074 43.6668 48.3149 43.1972 48.3162 42.7232C48.3152 42.2493 48.4079 41.7799 48.5889 41.3418C48.7698 40.9038 49.0354 40.5058 49.3706 40.1707C49.7057 39.8356 50.1037 39.5699 50.5417 39.389C50.9797 39.2081 51.4492 39.1154 51.9231 39.1163V39.1186Z" fill="#424B5A"/>
</svg>
