<svg width="66" height="57" viewBox="0 0 66 57" fill="none" xmlns="http://www.w3.org/2000/svg">
<path d="M60.0187 17.2099C59.5427 17.0226 59.0355 16.9272 58.524 16.9286H58.4704C55.7691 16.9688 52.7396 19.4987 51.1499 23.3251C49.2441 27.9027 50.1213 32.5862 53.124 33.7903C53.5995 33.9775 54.1062 34.0729 54.6173 34.0715C57.332 34.0715 60.403 31.5269 62.0062 27.6751C63.8986 23.0974 63.0079 18.4139 60.0187 17.2099V17.2099ZM42.5891 35.0733C38.8659 28.8952 37.2588 26.5715 32.9998 26.5715C28.7409 26.5715 27.1204 28.9099 23.3971 35.0733C20.2096 40.3447 13.7676 40.784 12.1605 45.2613C11.8344 46.0813 11.6707 46.9569 11.6783 47.8394C11.6783 51.4809 14.4641 54.4287 17.8927 54.4287C22.1516 54.4287 27.9507 51.0282 33.0132 51.0282C38.0757 51.0282 43.8481 54.4287 48.107 54.4287C51.5356 54.4287 54.3079 51.4823 54.3079 47.8394C54.311 46.9561 54.1427 46.0805 53.8124 45.2613C52.2052 40.768 45.7767 40.3447 42.5891 35.0733ZM24.4967 20.6786C24.676 20.6788 24.8551 20.6653 25.0324 20.6384C28.1409 20.1871 30.0815 15.8799 29.3771 11.0156C28.7141 6.42992 25.9311 3 23.0208 3C22.8415 2.99986 22.6624 3.01329 22.4851 3.04018C19.3766 3.49152 17.436 7.79867 18.1404 12.663C18.8034 17.2353 21.5864 20.6786 24.4967 20.6786ZM47.8552 12.663C48.5597 7.79867 46.6191 3.49152 43.5106 3.04018C43.3333 3.01329 43.1542 2.99986 42.9749 3C40.0646 3 37.2869 6.42992 36.6226 11.0156C35.9181 15.8799 37.8588 20.1871 40.9673 20.6384C41.1446 20.6653 41.3237 20.6788 41.503 20.6786C44.4133 20.6786 47.1963 17.2353 47.8552 12.663V12.663ZM12.8797 33.7903C15.8784 32.5849 16.7543 27.8974 14.8511 23.3251C13.2493 19.4733 10.181 16.9286 7.4703 16.9286C6.95924 16.9272 6.45253 17.0226 5.97699 17.2099C2.97833 18.4152 2.10243 23.1027 4.00556 27.6751C5.60735 31.5269 8.67566 34.0715 11.3864 34.0715C11.8974 34.0729 12.4042 33.9775 12.8797 33.7903V33.7903Z" stroke="#424B5A" stroke-width="5" stroke-miterlimit="10"/>
</svg>
