<svg width="22" height="23" viewBox="0 0 22 23" fill="none" xmlns="http://www.w3.org/2000/svg">
<path d="M11.074 9.9805C12.5678 9.9805 13.8219 10.9305 14.1762 12.215C14.6216 13.8255 14.5614 15.5905 16.5192 16.507C18.257 17.062 18.9145 17.7595 18.9145 19.6295C18.9145 21.122 17.5538 22.7084 15.7995 22.9064C13.8379 23.1829 12.311 22.8214 11.0735 22.1594C9.83588 22.8214 8.30849 23.1834 6.34957 22.9064C4.59417 22.7084 3.23406 21.1165 3.23406 19.6295C3.23406 17.7995 3.93569 17.025 5.67032 16.4945C7.80504 15.471 7.51842 13.677 7.9947 12.136C8.1905 11.5125 8.59645 10.9653 9.15166 10.5767C9.70686 10.1881 10.3814 9.97886 11.074 9.9805ZM20.8537 8.8685C20.3246 8.43701 18.1654 10.1215 17.4862 10.9545C17.0733 11.399 16.8165 12.01 16.8165 12.684C16.8165 14.0395 17.85 15.1385 19.1217 15.1385C20.0892 15.1385 20.9171 14.507 21.2596 13.609C21.925 11.994 21.9618 9.7715 20.8537 8.8685ZM1.29325 8.8685C0.186735 9.7715 0.222429 11.994 0.888898 13.609C1.23146 14.507 2.05881 15.1385 3.02575 15.1385C4.29849 15.1385 5.33096 14.0395 5.33096 12.684C5.33096 12.01 5.07471 11.399 4.66182 10.9545C3.98204 10.1215 1.82334 8.43701 1.29325 8.8685ZM13.9162 0.0150409C19.2906 0.871037 18.9134 9.366 14.6104 8.6815C13.3691 8.48351 12.4474 7.42251 12.3073 6.15501C12.1651 4.86602 11.8449 -0.313958 13.9162 0.0150409ZM8.23178 0.0150409C10.3036 -0.314458 9.98292 4.86552 9.84068 6.15451C9.70056 7.42251 8.77997 8.48301 7.53867 8.681C3.23459 9.3665 2.85794 0.871037 8.23178 0.0150409Z" fill="#424B5A"/>
</svg>
