<svg width="60" height="60" viewBox="0 0 60 60" fill="none" xmlns="http://www.w3.org/2000/svg">
<path d="M53.6844 28.4175H60.0001C60.0001 12.2177 47.7697 0 31.5479 0V6.3157C44.375 6.3157 53.6844 15.6092 53.6844 28.4175Z" fill="#424B5A"/>
<path d="M31.5794 18.947C38.2203 18.947 41.0529 21.7796 41.0529 28.4205H47.3686C47.3686 18.2365 41.7634 12.6313 31.5794 12.6313V18.947ZM42.3855 36.1352C41.7787 35.5836 40.9814 35.2895 40.1618 35.3148C39.3422 35.3402 38.5645 35.683 37.993 36.2709L30.4362 44.0424C28.6173 43.695 24.9605 42.5551 21.1964 38.8004C17.4322 35.0331 16.2922 31.3668 15.9543 29.5605L23.7195 22.0006C24.3081 21.4295 24.6515 20.6517 24.6768 19.8318C24.7022 19.012 24.4075 18.2145 23.8553 17.6081L12.187 4.77772C11.6345 4.16938 10.8667 3.80038 10.0465 3.74908C9.22631 3.69779 8.41844 3.96823 7.79446 4.50299L0.94193 10.3797C0.395973 10.9277 0.070109 11.6569 0.0261532 12.4292C-0.0212145 13.2186 -0.924359 31.9194 13.5765 46.4266C26.2268 59.0738 42.0729 59.999 46.437 59.999C47.0749 59.999 47.4665 59.9801 47.5707 59.9737C48.3429 59.9305 49.0717 59.6032 49.617 59.0548L55.4906 52.1991C56.0257 51.5755 56.2967 50.7679 56.246 49.9477C56.1953 49.1276 55.8269 48.3595 55.219 47.8066L42.3855 36.1352V36.1352Z" fill="#424B5A"/>
</svg>
