<svg width="100" height="100" viewBox="0 0 100 100" fill="none" xmlns="http://www.w3.org/2000/svg">
<path d="M99.6996 92.8121L67.2372 60.3497C72.2747 53.8373 74.9997 45.8748 74.9997 37.4998C74.9997 27.4749 71.0872 18.0749 64.0122 10.9875C56.9372 3.89998 47.5123 0 37.4998 0C27.4874 0 18.0624 3.91248 10.9875 10.9875C3.89998 18.0624 0 27.4749 0 37.4998C0 47.5123 3.91248 56.9372 10.9875 64.0122C18.0624 71.0997 27.4749 74.9997 37.4998 74.9997C45.8748 74.9997 53.8248 72.2747 60.3372 67.2497L92.7996 99.6996C92.8948 99.7948 93.0078 99.8704 93.1322 99.9219C93.2566 99.9735 93.3899 100 93.5246 100C93.6593 100 93.7926 99.9735 93.917 99.9219C94.0414 99.8704 94.1544 99.7948 94.2496 99.6996L99.6996 94.2621C99.7948 94.1669 99.8704 94.0539 99.9219 93.9295C99.9735 93.8051 100 93.6717 100 93.5371C100 93.4024 99.9735 93.2691 99.9219 93.1447C99.8704 93.0203 99.7948 92.9073 99.6996 92.8121V92.8121ZM57.2998 57.2998C51.9998 62.5872 44.9748 65.4997 37.4998 65.4997C30.0249 65.4997 22.9999 62.5872 17.6999 57.2998C12.4124 51.9998 9.49996 44.9748 9.49996 37.4998C9.49996 30.0249 12.4124 22.9874 17.6999 17.6999C22.9999 12.4124 30.0249 9.49996 37.4998 9.49996C44.9748 9.49996 52.0123 12.3999 57.2998 17.6999C62.5872 22.9999 65.4997 30.0249 65.4997 37.4998C65.4997 44.9748 62.5872 52.0123 57.2998 57.2998Z" fill="#424B5A"/>
</svg>
