<svg width="100" height="97" viewBox="0 0 100 97" fill="none" xmlns="http://www.w3.org/2000/svg">
<path d="M7.5951 0.520958L96.9821 43.2714C97.8856 43.7028 98.6484 44.3812 99.1825 45.2281C99.7166 46.0749 100 47.0556 100 48.0568C100 49.058 99.7166 50.0388 99.1825 50.8856C98.6484 51.7325 97.8856 52.4108 96.9821 52.8422L7.5951 95.5927C6.67876 96.0316 5.65561 96.198 4.64741 96.0722C3.6392 95.9463 2.68837 95.5335 1.90805 94.8828C1.12773 94.2321 0.550773 93.3709 0.245823 92.4017C-0.0591277 91.4325 -0.0792327 90.3961 0.1879 89.4158L9.13084 56.6307C9.24031 56.2289 9.46563 55.8682 9.77872 55.5936C10.0918 55.319 10.4788 55.1426 10.8914 55.0865L54.2061 49.2023C54.3872 49.1765 54.5585 49.1044 54.7035 48.9929C54.8484 48.8814 54.9621 48.7343 55.0334 48.5659L55.1098 48.3029C55.1432 48.066 55.0956 47.8248 54.9747 47.6184C54.8538 47.412 54.6667 47.2526 54.4437 47.1659L54.2104 47.1023L10.9381 41.2181C10.5262 41.1612 10.1401 40.9845 9.82788 40.7099C9.51562 40.4354 9.29093 40.0751 9.18175 39.6739L0.1879 6.70211C-0.0803146 5.72154 -0.0610279 4.68454 0.243463 3.71462C0.547954 2.7447 1.12482 1.88275 1.90534 1.23141C2.68587 0.580083 3.63716 0.166826 4.64592 0.0408669C5.65467 -0.0850926 6.67838 0.081554 7.5951 0.520958V0.520958Z" fill="#C1B18A"/>
</svg>
