<svg width="60" height="48" viewBox="0 0 60 48" fill="none" xmlns="http://www.w3.org/2000/svg">
<path d="M9 12.45V6C9 2.7 11.7 0 15 0H45C48.3 0 51 2.7 51 6V12.48C47.52 13.71 45 17.01 45 20.91V27H15V20.88C15 17.01 12.48 13.68 9 12.45ZM54 15C50.7 15 48 17.7 48 21V30H12V21C12 19.4087 11.3679 17.8826 10.2426 16.7574C9.11742 15.6321 7.5913 15 6 15C4.4087 15 2.88258 15.6321 1.75736 16.7574C0.632141 17.8826 0 19.4087 0 21V36C0 39.3 2.7 42 6 42V48H12V42H48V48H54V42C57.3 42 60 39.3 60 36V21C60 17.7 57.3 15 54 15Z" fill="#424B5A"/>
</svg>
