<svg width="60" height="54" viewBox="0 0 60 54" fill="none" xmlns="http://www.w3.org/2000/svg">
<path d="M51 15V9C51 4.05 46.95 0 42 0H18C13.05 0 9 4.05 9 9V15C4.05 15 0 19.05 0 24V39C0 43.95 4.05 48 9 48V54H15V48H45V54H51V48C55.95 48 60 43.95 60 39V24C60 19.05 55.95 15 51 15ZM15 9C15 7.35 16.35 6 18 6H42C43.65 6 45 7.35 45 9V17.34C43.17 18.99 42 21.36 42 24V30H18V24C18 21.36 16.83 18.99 15 17.34V9ZM54 39C54 40.65 52.65 42 51 42H9C7.35 42 6 40.65 6 39V24C6 22.35 7.35 21 9 21C10.65 21 12 22.35 12 24V36H48V24C48 22.35 49.35 21 51 21C52.65 21 54 22.35 54 24V39Z" fill="#424B5A"/>
</svg>
