<svg width="60" height="60" viewBox="0 0 60 60" fill="none" xmlns="http://www.w3.org/2000/svg">
<path d="M20 60H6.66667C3 60 0 57 0 53.3333V6.66667C0 3 3 0 6.66667 0H20C23.6667 0 26.6667 3 26.6667 6.66667V53.3333C26.6667 57 23.6667 60 20 60ZM40 60H53.3333C57 60 60 57 60 53.3333V36.6667C60 33 57 30 53.3333 30H40C36.3333 30 33.3333 33 33.3333 36.6667V53.3333C33.3333 57 36.3333 60 40 60ZM60 16.6667V6.66667C60 3 57 0 53.3333 0H40C36.3333 0 33.3333 3 33.3333 6.66667V16.6667C33.3333 20.3333 36.3333 23.3333 40 23.3333H53.3333C57 23.3333 60 20.3333 60 16.6667Z" fill="#C1B18A"/>
</svg>
