<svg width="60" height="49" viewBox="0 0 60 49" fill="none" xmlns="http://www.w3.org/2000/svg">
<path d="M59.8861 17.1932L55.5953 2.19041C55.4207 1.56055 55.0445 1.00528 54.5242 0.609659C54.0039 0.214039 53.3683 -0.000116167 52.7147 4.72742e-08H7.28625C5.936 4.72742e-08 4.76578 0.900168 4.40572 2.19041L0.114918 17.1932C-0.425183 19.0836 1.01509 21.0039 2.99545 21.0039H9.59668L5.99601 48.0089H11.9971L14.0075 33.0062H46.0235L48.0038 48.0089H54.005L50.4043 21.0039H57.0055C58.9859 21.0039 60.4262 19.0836 59.8861 17.1932ZM14.7877 27.005L15.5978 21.0039H44.4032L45.2133 27.005H14.7877Z" fill="#424B5A"/>
</svg>
