<svg width="63" height="50" viewBox="0 0 63 50" fill="none" xmlns="http://www.w3.org/2000/svg">
<path d="M62.3692 17.9062L57.9004 2.28125C57.7186 1.62527 57.3268 1.04697 56.785 0.634943C56.2431 0.222915 55.5811 -0.000120985 54.9004 4.92347e-08H7.58792C6.18167 4.92347e-08 4.96293 0.9375 4.58793 2.28125L0.119175 17.9062C-0.443325 19.875 1.05668 21.875 3.11918 21.875H9.99417L6.24418 50H12.4942L14.5879 34.375H47.9317L49.9942 50H56.2442L52.4942 21.875H59.3692C61.4317 21.875 62.9317 19.875 62.3692 17.9062ZM15.4004 28.125L16.2442 21.875H46.2442L47.0879 28.125H15.4004ZM7.27542 15.625L9.96293 6.25H52.5567L55.2442 15.625H7.27542Z" fill="#424B5A"/>
</svg>
