<svg width="60" height="77" viewBox="0 0 60 77" fill="none" xmlns="http://www.w3.org/2000/svg">
<path d="M10.9091 35.4546H49.0909V30H10.9091V35.4546ZM10.9091 40.9091V45C10.9091 46.9699 11.2971 48.9204 12.0509 50.7403C12.8047 52.5602 13.9096 54.2138 15.3025 55.6067C16.6954 56.9995 18.3489 58.1044 20.1688 58.8583C21.9887 59.6121 23.9393 60.0001 25.9091 60.0001H34.0909C36.0607 60.0001 38.0113 59.6121 39.8312 58.8583C41.6511 58.1044 43.3047 56.9995 44.6975 55.6067C46.0904 54.2138 47.1953 52.5602 47.9491 50.7403C48.7029 48.9204 49.0909 46.9699 49.0909 45V40.9091H10.9091V40.9091ZM8.18178 24.5455H51.8182C52.1764 24.5455 52.531 24.616 52.8619 24.7531C53.1928 24.8901 53.4935 25.091 53.7467 25.3443C54 25.5975 54.2008 25.8982 54.3379 26.2291C54.4749 26.56 54.5455 26.9146 54.5455 27.2728V45C54.5455 50.4249 52.3904 55.6276 48.5545 59.4636C44.7185 63.2995 39.5158 65.4546 34.0909 65.4546H25.9091C20.4842 65.4546 15.2815 63.2995 11.4455 59.4636C7.60956 55.6276 5.45454 50.4249 5.45454 45V27.2728C5.45453 26.9146 5.52506 26.56 5.66211 26.2291C5.79916 25.8982 6.00005 25.5975 6.2533 25.3443C6.50655 25.091 6.8072 24.8901 7.13809 24.7531C7.46898 24.616 7.82363 24.5455 8.18178 24.5455V24.5455ZM30 0C30.3582 -1.53706e-10 30.7128 0.070545 31.0437 0.207607C31.3746 0.344669 31.6752 0.545564 31.9285 0.79882C32.1817 1.05208 32.3826 1.35274 32.5197 1.68363C32.6567 2.01452 32.7273 2.36917 32.7272 2.72733V16.3636C32.7272 17.087 32.4399 17.7806 31.9285 18.2921C31.417 18.8036 30.7233 19.0909 30 19.0909C29.2767 19.0909 28.583 18.8036 28.0715 18.2921C27.5601 17.7806 27.2728 17.087 27.2728 16.3636V2.72733C27.2727 2.36917 27.3433 2.01452 27.4803 1.68363C27.6174 1.35274 27.8183 1.05208 28.0715 0.79882C28.3248 0.545564 28.6254 0.344669 28.9563 0.207607C29.2872 0.070545 29.6418 -1.53706e-10 30 0ZM19.0909 5.45457C19.8142 5.45457 20.5079 5.74191 21.0194 6.25337C21.5308 6.76482 21.8182 7.45851 21.8182 8.18182V16.3636C21.8182 17.087 21.5308 17.7807 21.0194 18.2921C20.5079 18.8036 19.8142 19.0909 19.0909 19.0909C18.3676 19.0909 17.6739 18.8036 17.1624 18.2921C16.6509 17.7807 16.3636 17.087 16.3636 16.3636V8.18182C16.3636 7.82367 16.4341 7.46902 16.5712 7.13813C16.7083 6.80724 16.9092 6.50659 17.1624 6.25334C17.4157 6.00009 17.7163 5.7992 18.0472 5.66215C18.3781 5.5251 18.7328 5.45456 19.0909 5.45457V5.45457ZM40.9091 5.45457C41.2672 5.45456 41.6219 5.5251 41.9528 5.66215C42.2837 5.7992 42.5843 6.00009 42.8376 6.25334C43.0908 6.50659 43.2917 6.80724 43.4288 7.13813C43.5659 7.46902 43.6364 7.82367 43.6364 8.18182V16.3636C43.6364 17.087 43.3491 17.7807 42.8376 18.2921C42.3261 18.8036 41.6324 19.0909 40.9091 19.0909C40.1858 19.0909 39.4921 18.8036 38.9806 18.2921C38.4692 17.7807 38.1818 17.087 38.1818 16.3636V8.18182C38.1818 7.45851 38.4692 6.76482 38.9806 6.25337C39.4921 5.74191 40.1858 5.45457 40.9091 5.45457ZM2.72729 70.9146H57.2727C57.996 70.9146 58.6897 71.2019 59.2012 71.7134C59.7127 72.2248 60 72.9185 60 73.6419C60 74.3652 59.7127 75.0589 59.2012 75.5703C58.6897 76.0818 57.996 76.3692 57.2727 76.3692H2.72729C2.00397 76.3692 1.31027 76.0818 0.798805 75.5703C0.287339 75.0589 0 74.3652 0 73.6419C0 72.9185 0.287339 72.2248 0.798805 71.7134C1.31027 71.2019 2.00397 70.9146 2.72729 70.9146V70.9146Z" fill="#424B5A"/>
</svg>
