<svg width="27" height="19" viewBox="0 0 27 19" fill="none" xmlns="http://www.w3.org/2000/svg">
<path d="M19.6791 12.238C18.0079 10.8732 15.8252 10.0471 13.4344 10.0471C11.0436 10.0471 8.86087 10.8732 7.18669 12.2408C7.14046 12.2799 7.11215 12.3343 7.10772 12.3926C7.10328 12.4508 7.12306 12.5085 7.1629 12.5534L8.23342 13.7506C8.31966 13.8455 8.47132 13.8567 8.57242 13.7758C9.86895 12.7041 11.5699 12.0566 13.4344 12.0566C15.2989 12.0566 16.9998 12.7041 18.2964 13.773C18.3975 13.8539 18.5491 13.8427 18.6354 13.7478L19.7059 12.5506C19.7892 12.4585 19.7773 12.3189 19.6791 12.238ZM23.1702 8.32797C20.5326 6.26551 17.1396 5.02357 13.4344 5.02357C9.72919 5.02357 6.33622 6.26551 3.69559 8.32797C3.64728 8.36621 3.61704 8.42083 3.61147 8.4799C3.6059 8.53898 3.62545 8.59773 3.66585 8.64334L4.73637 9.84062C4.81964 9.93551 4.97129 9.94668 5.06943 9.86853C7.33835 8.09912 10.2555 7.033 13.4344 7.033C16.6133 7.033 19.5304 8.09912 21.7964 9.86853C21.8975 9.94668 22.0462 9.93551 22.1294 9.84062L23.2 8.64334C23.2832 8.54845 23.2713 8.40612 23.1702 8.32797ZM26.6405 4.44865C23.0305 1.66894 18.4094 0 13.3749 0C8.37319 0 3.78182 1.64662 0.180694 4.39284C0.155953 4.41149 0.135439 4.43461 0.120361 4.46081C0.105283 4.48702 0.0959448 4.5158 0.0928967 4.54545C0.0898485 4.5751 0.093152 4.60502 0.102613 4.63345C0.112073 4.66188 0.127499 4.68825 0.147983 4.711L1.21851 5.90828C1.30177 6.00038 1.45046 6.01434 1.54859 5.93898C4.78098 3.48022 8.89358 2.00943 13.3749 2.00943C17.889 2.00943 22.0283 3.50255 25.2696 5.99201C25.3708 6.07015 25.5194 6.0562 25.6027 5.96131L26.6732 4.76402C26.7595 4.66913 26.7446 4.5268 26.6405 4.44865ZM11.5015 16.6336C11.5015 17.1073 11.702 17.5617 12.0589 17.8966C12.4158 18.2316 12.8999 18.4198 13.4047 18.4198C13.9094 18.4198 14.3935 18.2316 14.7504 17.8966C15.1073 17.5617 15.3078 17.1073 15.3078 16.6336C15.3078 16.1599 15.1073 15.7056 14.7504 15.3706C14.3935 15.0356 13.9094 14.8475 13.4047 14.8475C12.8999 14.8475 12.4158 15.0356 12.0589 15.3706C11.702 15.7056 11.5015 16.1599 11.5015 16.6336Z" fill="#424B5A"/>
</svg>
